<svg width="157" height="44" viewBox="0 0 157 44" fill="none" xmlns="http://www.w3.org/2000/svg">
<g clip-path="url(#clip0_5_243)">
<path d="M10.9603 23.3541C8.49146 26.7856 6.54029 30.3159 5.97055 34.4705C5.55691 37.4961 5.78324 40.4645 6.66777 43.3886C6.725 43.5733 6.77703 43.7607 6.84728 44H0.00780465V43.4953C0.00780465 33.2062 0.0104062 22.9197 0 12.6331C0 12.2819 0.0936558 12.0842 0.408443 11.8969C6.99556 7.98676 13.5749 4.06622 20.149 0.132682C20.4664 -0.0572316 20.6849 -0.0364192 20.9893 0.145689C27.5764 4.05322 34.1713 7.95034 40.7663 11.8449C41.0004 11.9827 41.1097 12.131 41.1097 12.4198C41.1019 22.839 41.1019 33.2582 41.1019 43.6774C41.1019 43.7424 41.0941 43.8075 41.0889 43.9167H35.9014C36.2006 42.7044 36.5648 41.5077 36.7885 40.2876C38.5393 30.7971 36.5127 22.2172 30.4225 14.6831C28.6769 12.5213 26.554 10.7392 23.9707 9.59452C22.7792 9.0664 21.5434 8.65015 20.2218 8.63975C18.4814 8.62414 16.9075 9.26672 15.3908 10.0238C14.6389 10.3984 14.1368 11.0722 13.7804 11.8371C13.7102 11.9853 13.6191 12.131 13.5879 12.2897C13.2887 13.7778 12.3443 14.6363 10.9525 15.1514C10.1096 15.4636 9.32655 15.9371 8.52007 16.3429C7.03199 17.0922 6.63655 18.5855 7.5549 19.9799C8.10643 20.8176 8.68657 21.6345 9.21469 22.4852C9.61272 23.1278 10.029 23.6689 10.9629 23.3541H10.9603Z" fill="#F9A543"/>
<path d="M30.5057 17.2951C30.3835 17.1156 30.2378 16.9465 30.0973 16.7618C30.0245 17.4122 30.0271 18.0236 29.8762 18.5985C29.3793 20.495 27.5556 21.684 25.5914 21.4576C23.6819 21.2365 22.1886 19.5767 22.1418 17.6177C22.1236 16.8139 22.1704 16.0048 22.0897 15.2061C21.8998 13.3278 20.789 11.8735 19.7379 10.401C19.6677 10.2996 19.4127 10.2527 19.2749 10.2918C18.484 10.5129 17.7035 10.7627 16.9231 11.015C16.0567 11.296 15.4558 11.8605 15.1202 12.7086C14.8366 13.4266 14.5713 14.1525 14.2409 14.8471C14.1134 15.1202 13.8688 15.3882 13.6087 15.5417C12.9557 15.9215 12.2663 16.2389 11.5847 16.5641C11.3401 16.6812 11.2751 16.8034 11.3089 17.0948C11.3636 17.5267 11.3531 17.9793 11.2751 18.4086C11.1164 19.3113 10.5623 19.9773 9.81042 20.5133C10.029 20.8463 10.2501 21.1506 10.4374 21.4732C10.5857 21.7308 10.7574 21.8218 11.0696 21.7932C13.1014 21.5955 15.1306 21.3796 17.1676 21.2651C18.0964 21.2131 18.7389 20.9841 19.0407 20.0242C19.202 19.5117 19.7093 19.379 20.1256 19.6001C20.5236 19.8082 20.6563 20.2375 20.4404 20.698C20.2166 21.174 19.9695 21.6371 19.7379 22.1106C19.561 22.4696 19.2775 22.6309 18.8768 22.6621C17.8778 22.7402 16.8788 22.8468 15.8174 22.9457C15.8174 23.6976 15.8044 24.4026 15.8304 25.1076C15.8356 25.2273 15.9787 25.3834 16.0984 25.4484C16.6317 25.7398 17.1702 26.0207 17.7269 26.2705C19.6313 27.1316 20.7395 28.5833 21.0725 30.6463C21.1428 31.0886 21.239 31.5724 21.4784 31.9367C22.2172 33.0553 22.3369 34.1792 21.7385 35.3811C21.6839 35.4904 21.6032 35.6803 21.6449 35.7271C22.0767 36.2032 22.3135 36.838 23.0003 37.0955C26.0207 38.2402 27.8157 40.4151 28.3595 43.602C28.4089 43.8934 28.5104 43.9818 28.7991 43.9792C30.4771 43.9662 32.1551 43.9636 33.8357 43.974C34.1219 43.974 34.226 43.87 34.3092 43.6098C35.0376 41.3178 35.571 38.9843 35.7479 36.5856C36.263 29.5484 34.5147 23.1148 30.511 17.2977L30.5057 17.2951ZM17.1026 16.3352C16.5224 16.3404 16.0307 15.8643 16.0151 15.2841C15.9995 14.6858 16.4938 14.1759 17.0922 14.1733C17.6749 14.1733 18.164 14.6442 18.1796 15.2243C18.1926 15.8253 17.7035 16.33 17.1 16.3352H17.1026ZM32.215 28.526C30.6748 30.0818 29.1243 31.6219 27.5712 33.1646C27.0691 33.6641 26.6815 33.6615 26.1742 33.1568C24.6236 31.6115 23.0705 30.0739 21.5304 28.5182C20.2452 27.2201 20.2296 25.2949 21.468 24.054C22.7089 22.813 24.6367 22.8234 25.9452 24.0826C26.2418 24.3661 26.5202 24.6705 26.9052 25.066C27.2408 24.6991 27.5114 24.3714 27.8183 24.0774C29.1269 22.8182 31.0625 22.8182 32.2904 24.0644C33.5261 25.3131 33.5027 27.2305 32.2124 28.5286L32.215 28.526Z" fill="#F9A543"/>
<path d="M26.7335 43.3991C26.1352 40.9562 24.6627 39.3043 22.2615 38.5134C21.8322 38.3729 21.5018 38.1622 21.2417 37.7954C21.0309 37.4936 20.776 37.2178 20.5289 36.9186C19.6391 37.7537 18.6349 38.2584 17.4694 38.3859C15.6353 38.5862 14.1134 37.9384 12.8751 36.6012C12.5681 36.2656 12.5863 35.8338 12.8751 35.5294C13.1743 35.212 13.6165 35.1964 13.9834 35.4982C14.1342 35.6231 14.2669 35.774 14.4152 35.904C15.076 36.4998 15.8513 36.8276 16.741 36.8484C18.4944 36.89 19.6157 35.8702 20.391 34.4992C20.7006 33.9503 20.5419 33.3987 20.1959 32.8784C19.9851 32.561 19.8238 32.202 19.7016 31.8404C19.5871 31.4996 19.5403 31.138 19.483 30.779C19.2515 29.3767 18.4866 28.383 17.2041 27.769C16.4028 27.3866 15.6171 26.9755 14.8184 26.5879C14.4178 26.3954 14.2227 26.1066 14.2331 25.6565C14.2487 24.9697 14.2383 24.2803 14.2383 23.5103C12.8751 23.8016 11.9047 24.5092 11.2491 25.6565C11.015 26.0702 10.786 26.489 10.5311 26.8897C7.21152 32.085 6.5013 37.6185 8.34319 43.4928C8.45506 43.8492 8.60335 43.9662 8.98578 43.9662C14.7638 43.9532 20.5419 43.9558 26.3173 43.9558C26.476 43.9558 26.6321 43.9402 26.8142 43.9324C26.7856 43.7217 26.7726 43.5578 26.7361 43.4017L26.7335 43.3991ZM16.6057 30.2483C17.2067 30.2483 17.701 30.753 17.6854 31.3539C17.6697 31.9341 17.1833 32.4102 16.6005 32.4102C16.0178 32.4102 15.5313 31.9315 15.5209 31.3539C15.5079 30.7504 16.0022 30.2509 16.6031 30.2483H16.6057Z" fill="#F9A543"/>
<path d="M21.7516 10.4739C22.0507 10.5623 22.2329 10.6118 22.415 10.6716C23.8874 11.1555 25.2038 11.9281 26.3667 12.9375C27.7429 14.1317 28.4323 15.677 28.4532 17.4981C28.4688 18.8535 27.4307 19.8941 26.1066 19.9019C24.7746 19.9097 23.7444 18.8925 23.7157 17.5371C23.7001 16.7644 23.7339 15.9918 23.6767 15.2217C23.5857 13.973 23.1694 12.8205 22.5138 11.7538C22.2745 11.3662 22.0455 10.9734 21.749 10.4739H21.7516Z" fill="#F9A543"/>
<path d="M9.78702 17.5293C9.81564 18.2707 9.52427 18.7858 8.95193 19.1657C8.35617 18.4242 8.61372 17.9169 9.78702 17.5293Z" fill="#F9A543"/>
<path d="M31.2472 27.2331C29.8138 28.6978 28.3283 30.1156 26.8272 31.5829C25.4197 30.178 24.0019 28.781 22.6075 27.3632C21.9701 26.7154 21.9987 25.7632 22.6257 25.1544C23.2318 24.5665 24.1632 24.5665 24.8058 25.1701C25.261 25.5993 25.6929 26.052 26.1378 26.4916C26.7127 27.0614 27.0535 27.0562 27.6363 26.476C28.0915 26.0234 28.5338 25.5577 29.0047 25.1232C29.629 24.5431 30.55 24.5665 31.1457 25.144C31.7337 25.7138 31.8326 26.6373 31.2472 27.2331Z" fill="#F9A543"/>
<path d="M60.0282 40.9016C59.9657 40.9537 59.8253 40.9797 59.6067 40.9797C59.1593 40.5218 58.7222 39.9338 58.2956 39.2158L58.2019 40.9953C58.1291 41.6197 57.9365 42.1087 57.6244 42.4626C57.3954 42.7435 57.0416 42.884 56.5629 42.884C56.1467 42.884 55.6524 42.7903 55.08 42.603C55.0176 42.5822 54.9604 42.5614 54.9083 42.5406C54.8043 42.4886 54.7522 42.3325 54.7522 42.0723C54.8667 41.937 54.9448 41.859 54.9864 41.8382C55.0696 41.8278 55.3766 41.8798 55.9073 41.9943C56.4693 42.1191 56.8595 42.0827 57.078 41.885C57.3278 41.6769 57.4787 41.2086 57.5307 40.4802C57.5411 40.3449 57.5463 40.2512 57.5463 40.1992C57.5983 39.7205 57.6087 39.2679 57.5775 38.8412C57.5671 38.6331 57.5411 38.4458 57.4995 38.2793C56.5109 39.3095 55.6264 40.0015 54.8459 40.3553C54.8251 40.3657 54.7991 40.3761 54.7679 40.3865C54.5597 40.3865 54.4244 40.3241 54.362 40.1992C54.362 39.9911 54.3672 39.8714 54.3776 39.8402C55.4599 39.1534 56.2091 38.6071 56.6254 38.2012C56.9063 37.9411 57.1665 37.6549 57.4058 37.3427C57.4162 37.1762 57.3486 36.8588 57.2029 36.3905C57.1405 36.172 57.0832 36.0211 57.0312 35.9379C56.5317 36.6663 55.8033 37.3115 54.8459 37.8734L54.5649 37.9046C54.4088 37.8318 54.3308 37.6653 54.3308 37.4051C54.3724 37.3635 54.6274 37.1866 55.0956 36.8744L55.283 36.7496C55.8553 36.3229 56.3496 35.7922 56.7658 35.1574L56.36 34.3457C56.3288 34.2937 56.2924 34.2469 56.2507 34.2052C55.7408 34.7672 55.1997 35.1574 54.6274 35.3759C54.4505 35.3759 54.3152 35.3083 54.2215 35.173C54.2007 35.0898 54.1903 35.0221 54.1903 34.9701C54.1903 34.8556 54.3516 34.7099 54.6742 34.533C54.8615 34.4186 54.9812 34.3353 55.0332 34.2833L55.4391 33.9711C55.9698 33.4924 56.3808 33.0085 56.6722 32.5194L54.5337 32.4882C54.3568 32.4778 54.2892 32.3477 54.3308 32.098C54.3412 32.0043 54.362 31.9367 54.3932 31.8951L54.5961 31.7858L59.6067 31.8014C59.7836 31.8951 59.8409 32.046 59.7784 32.2541L59.6848 32.4258L59.5755 32.4882L57.5307 32.5194L56.7971 33.6277C57.3174 34.4602 57.718 35.3967 57.999 36.4374C58.2591 37.53 58.7534 38.6071 59.4819 39.6685L60.1062 40.5426C60.1583 40.6155 60.1479 40.7143 60.075 40.8392L60.0282 40.9016ZM58.0458 35.8754C57.9417 35.8234 57.8897 35.6725 57.8897 35.4228C58.4933 34.6839 58.9147 34.1428 59.1541 33.7994C59.2581 33.6433 59.409 33.6225 59.6067 33.737C59.7524 33.8098 59.8253 33.9139 59.8253 34.0491C59.8253 34.2781 59.4819 34.7568 58.795 35.4852C58.639 35.6517 58.5193 35.7662 58.436 35.8286C58.384 35.8598 58.2539 35.8754 58.0458 35.8754ZM66.2563 35.7974L66.069 35.8754H63.4934L62.0106 36.9213L65.2729 36.9837C65.4914 36.9941 65.6683 37.1294 65.8036 37.3895C65.8557 37.4832 65.8817 37.5664 65.8817 37.6393V41.9162C65.8817 42.1452 65.736 42.3429 65.4446 42.5094L65.1792 42.603L65.1324 42.6186L60.9023 42.603C60.7254 42.603 60.5537 42.4886 60.3872 42.2596C60.3144 42.166 60.2779 42.0879 60.2779 42.0255L60.2623 37.9046C60.2311 37.8942 59.9814 37.9723 59.5131 38.1388L58.998 38.2793H58.8887C58.7118 38.144 58.6546 37.9827 58.717 37.7954C58.7274 37.7537 58.7482 37.7121 58.7794 37.6705C59.9762 37.2959 61.1677 36.7079 62.354 35.9067L59.2945 35.8598C59.0656 35.7662 59.0032 35.6101 59.1072 35.3915C59.1489 35.3083 59.2113 35.2407 59.2945 35.1886L62.073 35.173L62.1042 33.4872L59.6848 33.456C59.5079 33.3519 59.435 33.2114 59.4662 33.0345C59.4871 32.9617 59.5183 32.8941 59.5599 32.8316L59.7472 32.7536H62.073L62.1198 31.38C62.1302 31.3487 62.2135 31.2915 62.3696 31.2083C62.5777 31.2083 62.713 31.2499 62.7754 31.3331C62.7962 31.3539 62.8118 31.38 62.8222 31.4112L62.8535 32.738L65.07 32.7692C65.174 32.842 65.2261 32.9825 65.2261 33.1906C65.2677 33.1698 65.3926 33.0345 65.6007 32.7848C65.7672 32.6079 65.9493 32.5194 66.147 32.5194C66.2927 32.5715 66.3656 32.6651 66.3656 32.8004C66.3656 33.0189 65.8244 33.6797 64.7422 34.7828L64.3676 35.1574L66.1782 35.1886C66.3447 35.1886 66.3968 35.3291 66.3343 35.6101C66.3135 35.6933 66.2875 35.7558 66.2563 35.7974ZM65.148 39.3719V37.9827C65.0856 37.8474 65.0076 37.7537 64.9139 37.7017L61.2769 37.6705C61.1729 37.7225 61.1 37.8006 61.0584 37.9046L61.0428 39.3719H65.148ZM65.148 40.1212H61.0428V41.4011C61.0428 41.6613 61.1156 41.8226 61.2613 41.885H64.8515C64.9867 41.833 65.0804 41.7445 65.1324 41.6196L65.148 40.1212ZM64.9919 33.456L62.8691 33.4872V35.173H63.2905C63.8629 34.7047 64.43 34.1324 64.9919 33.456Z" fill="#003B63"/>
<path d="M84.4723 42.6186C84.4723 42.7539 84.4359 42.8632 84.3631 42.9464C84.3006 43.0401 84.1549 43.0817 83.926 43.0713H83.8011C82.8646 42.9776 81.6418 42.5614 80.1329 41.8226L79.2588 41.3543C77.854 42.0931 76.5012 42.629 75.2004 42.962L74.576 43.1025C74.3991 43.1129 74.2847 43.0193 74.2326 42.8216C74.1806 42.6238 74.2326 42.4938 74.3887 42.4313C74.4512 42.4105 74.8102 42.3169 75.4658 42.1504C75.5906 42.1191 75.6947 42.0879 75.778 42.0567C76.7561 41.7653 77.6979 41.3907 78.6032 40.9328C77.2088 39.8714 76.1682 38.4353 75.4814 36.6247H74.4668C74.4147 38.7371 74.0661 40.4854 73.4209 41.8694L73.0619 42.5406V42.5562C72.9371 42.7227 72.781 42.7591 72.5937 42.6655C72.4272 42.5718 72.3647 42.4261 72.4063 42.2284C73.2388 40.8548 73.6655 39.3719 73.6863 37.7798L73.7331 33.1282C73.7331 32.9721 73.858 32.8004 74.1078 32.6131C74.2222 32.5298 74.3159 32.4882 74.3887 32.4882L78.3691 32.4726C78.3899 32.431 78.3951 32.2228 78.3847 31.8482C78.3743 31.5048 78.4784 31.3279 78.6969 31.3175C78.8114 31.3175 78.9258 31.3539 79.0403 31.4268C79.1235 31.6349 79.1548 31.9731 79.1339 32.4414L83.5826 32.4882C83.7803 32.4882 83.9728 32.6287 84.1601 32.9097C84.3266 33.1594 84.3162 33.5548 84.1289 34.096C84.1185 34.1168 84.1081 34.1532 84.0977 34.2052C83.8896 34.7984 83.6346 35.2042 83.3329 35.4228C82.9999 35.4228 82.8281 35.3135 82.8177 35.095C82.8177 35.0429 82.8281 34.9805 82.849 34.9076L83.3485 34.0491C83.4421 33.841 83.4889 33.6329 83.4889 33.4248C83.3849 33.2687 83.2704 33.1906 83.1455 33.1906H79.1652L79.1339 35.8754L82.1934 35.9222C82.4119 35.9222 82.6096 36.0211 82.7865 36.2188C82.8282 36.2604 82.8542 36.3021 82.8646 36.3437C82.9894 36.6039 82.927 37.0981 82.6773 37.8266C82.2714 38.8152 81.3505 39.8506 79.9144 40.9328C80.7053 41.4011 81.7043 41.7809 82.9114 42.0723L84.1445 42.3221C84.1758 42.3325 84.2018 42.3429 84.2226 42.3533C84.337 42.3949 84.4203 42.4834 84.4723 42.6186ZM78.3691 35.8754V33.1906H74.8414C74.7165 33.1906 74.5968 33.2739 74.4824 33.4404L74.4668 35.8754H78.3691ZM81.9748 36.6559L76.2618 36.6247C76.6365 37.6445 77.2556 38.6122 78.1193 39.528C78.5044 39.9442 78.8842 40.272 79.2588 40.5114C80.4347 39.7205 81.3036 38.7892 81.8656 37.7173C82.0113 37.4259 82.0945 37.2386 82.1153 37.1554C82.1257 37.0201 82.1153 36.9056 82.0841 36.812C82.0633 36.7287 82.0269 36.6767 81.9748 36.6559Z" fill="#003B63"/>
<path d="M97.3032 33.7214C97.3032 33.9191 97.2772 34.0596 97.2251 34.1428L97.0378 34.2209H94.5247L94.5091 35.0325L96.5695 35.095C96.7048 35.095 96.8557 35.2199 97.0222 35.4696L97.1315 35.7037V38.2793C97.1315 38.5186 96.9962 38.7267 96.7256 38.9036C96.6008 38.9869 96.4811 39.0285 96.3666 39.0285H94.5247L94.5091 39.8402L96.8349 39.887C97.0534 39.9703 97.0951 40.1316 96.9598 40.3709C96.8973 40.475 96.8245 40.5478 96.7412 40.5895H94.5247L94.5091 41.6041L96.5071 41.3699C96.5904 41.3699 96.658 41.3751 96.71 41.3855C96.8037 41.3959 96.8973 41.4688 96.991 41.6041C96.991 41.8122 96.9546 41.9527 96.8817 42.0255C96.8193 42.0984 94.9098 42.3169 91.1531 42.6811C91.0907 42.6811 91.0439 42.6863 91.0126 42.6967C90.8149 42.7071 90.7057 42.6031 90.6848 42.3845C90.664 42.1868 90.7213 42.0671 90.8565 42.0255C91.1687 41.9527 92.1001 41.8486 93.6506 41.7133C93.6818 41.7029 93.7078 41.6977 93.7287 41.6977L93.7599 40.5895L90.9502 40.5582C90.7629 40.5582 90.7057 40.4178 90.7785 40.1368C90.7993 40.0535 90.8253 39.9911 90.8565 39.9495L91.0282 39.8714H93.7287L93.7599 39.0441L91.7619 39.0129C91.585 39.0025 91.4185 38.888 91.2624 38.6695C91.1895 38.5759 91.1531 38.4926 91.1531 38.4198V35.735C91.1531 35.5268 91.2936 35.3343 91.5746 35.1574C91.689 35.0846 91.7931 35.0482 91.8868 35.0482H93.7287L93.7599 34.2365L90.8097 34.1896C90.7577 34.1896 90.6848 34.1168 90.5912 33.9711C90.5912 33.7942 90.6172 33.6745 90.6692 33.6121L90.8722 33.5028H93.7287L93.7599 32.7536L92.0116 32.8004C91.7827 32.79 91.5694 32.764 91.3717 32.7224C91.2572 32.6287 91.226 32.4986 91.278 32.3321C91.3092 32.2073 91.3821 32.1396 91.4965 32.1292C91.559 32.1188 92.1625 32.098 93.3072 32.0668C93.4945 32.0564 93.661 32.046 93.8067 32.0356C94.3894 31.9939 95.3 31.8847 96.5383 31.7078C96.632 31.6974 96.7256 31.7078 96.8193 31.739C96.9025 31.7702 96.9598 31.817 96.991 31.8795V32.2697C96.658 32.457 96.0857 32.5715 95.274 32.6131C94.941 32.6339 94.6912 32.6547 94.5247 32.6755L94.5091 33.4716L97.1315 33.5341C97.1835 33.5341 97.2407 33.5965 97.3032 33.7214ZM93.7287 36.7183V35.7818H92.1521C91.944 35.7818 91.8555 36.094 91.8868 36.7183H93.7287ZM93.7287 38.2949V37.4676H91.8868C91.9076 37.811 91.9232 38.0035 91.9336 38.0451C91.9752 38.1492 92.0376 38.2272 92.1209 38.2793L93.7287 38.2949ZM96.3822 36.7183C96.3822 36.3229 96.3718 36.094 96.351 36.0315C96.3094 35.8963 96.2365 35.8234 96.1325 35.813L94.5247 35.7818V36.7183H96.3822ZM96.3822 37.4676H94.5247V38.2949L96.0857 38.2793L96.273 38.1544C96.3458 38.0399 96.3822 37.811 96.3822 37.4676ZM98.5051 41.9006C98.6196 41.8902 98.9578 41.9579 99.5197 42.1036C100.071 42.2492 100.456 42.2336 100.675 42.0567C101.143 41.6717 101.398 40.8288 101.44 39.528C101.44 39.5592 101.445 39.45 101.455 39.2002L101.596 35.9067L101.58 35.0325C101.559 34.7932 101.512 34.5747 101.44 34.377C101.221 34.2105 100.758 34.1376 100.05 34.1584L99.7695 34.174L99.6602 35.7506V35.7662C99.3272 38.6279 98.682 40.8392 97.7246 42.4001C97.4437 42.8268 97.1575 43.0453 96.8661 43.0557C96.7412 42.9829 96.658 42.8996 96.6164 42.806C96.6164 42.6603 96.7256 42.4522 96.9442 42.1816C97.0274 42.0879 97.0846 42.0151 97.1159 41.9631C97.7611 40.7872 98.2345 39.5696 98.5363 38.3105C98.6092 38.0087 98.6612 37.7434 98.6924 37.5144C98.8173 36.3697 98.9057 35.5112 98.9578 34.9389C98.9578 34.9181 98.9734 34.6683 99.0046 34.1896C98.9318 34.1584 98.6872 34.1584 98.271 34.1896L97.9119 34.174C97.7663 34.1324 97.6622 34.0388 97.5998 33.8931C97.5998 33.7162 97.6518 33.5861 97.7559 33.5028C97.9119 33.4612 98.323 33.4456 98.989 33.456L99.0358 33.4248L99.0514 31.5829C99.1451 31.406 99.2804 31.3227 99.4573 31.3331C99.4781 31.3435 99.4989 31.3488 99.5197 31.3488C99.6758 31.4112 99.7538 31.4788 99.7538 31.5517V33.4404L101.268 33.456C101.757 33.5184 102.08 33.6953 102.236 33.9867C102.35 34.2365 102.387 34.866 102.345 35.8754V36.1876C102.345 36.5935 102.329 36.9889 102.298 37.3739C102.236 39.0806 102.106 40.4021 101.908 41.3387C101.71 42.2024 101.31 42.7227 100.706 42.8996C100.363 42.9933 99.8943 42.9933 99.3012 42.8996C98.6248 42.7956 98.2866 42.6031 98.2866 42.3221C98.2866 42.114 98.3594 41.9735 98.5051 41.9006Z" fill="#003B63"/>
<path d="M111.913 38.9036L111.867 42.8996C111.867 42.9724 111.804 43.0401 111.679 43.1025C111.336 43.1025 111.164 43.0088 111.164 42.8215V39.2782L109.338 39.7777C109.192 39.8193 109.078 39.8401 108.995 39.8401C108.87 39.7777 108.807 39.6268 108.807 39.3875C108.87 39.273 108.963 39.2002 109.088 39.1689C109.369 39.0961 110.051 38.8672 111.133 38.4821L111.164 34.611L109.978 34.5954C109.759 35.5944 109.608 36.198 109.525 36.4061C109.452 36.6246 109.369 36.8119 109.275 36.968C109.213 37.0721 109.083 37.1189 108.885 37.1085L108.807 37.0929C108.766 37.0929 108.703 37.0357 108.62 36.9212C108.62 36.7651 108.703 36.4737 108.87 36.0471C108.89 35.9951 108.906 35.9482 108.916 35.9066C109.187 35.0741 109.343 34.0647 109.385 32.8784L109.416 31.9418C109.426 31.8586 109.494 31.7805 109.619 31.7077C109.744 31.7077 109.874 31.7285 110.009 31.7701L110.118 31.9262C110.17 32.2384 110.15 32.7795 110.056 33.5496L110.025 33.8618L111.133 33.8774L111.18 31.4736C111.18 31.4319 111.247 31.3695 111.383 31.2863C111.58 31.2863 111.716 31.3123 111.789 31.3643L111.867 31.4892L111.898 33.8618L113.24 33.893C113.282 33.893 113.344 33.9658 113.428 34.1115C113.428 34.278 113.402 34.4029 113.35 34.4862L113.162 34.5954H111.913L111.898 38.0919C112.106 38.0503 112.465 37.8786 112.975 37.5768C113.048 37.5248 113.11 37.4883 113.162 37.4675C113.36 37.4675 113.49 37.5352 113.552 37.6705C113.584 37.7329 113.594 37.8161 113.584 37.9202C113.573 37.9514 113.563 37.9774 113.552 37.9983C113.396 38.1752 112.897 38.4561 112.054 38.8412C112.002 38.8724 111.955 38.8932 111.913 38.9036ZM116.019 41.9786C116.154 41.9786 116.492 42.0411 117.033 42.1659C117.262 42.218 117.46 42.244 117.626 42.244C118.73 42.244 119.338 41.526 119.453 40.0899C119.536 39.3719 119.588 38.8307 119.609 38.4665L119.734 34.1271C119.734 33.8774 119.609 33.6693 119.359 33.5028C119.286 33.4611 119.083 33.4403 118.75 33.4403C118.605 37.4675 117.273 40.4437 114.754 42.3689C114.317 42.681 113.958 42.8371 113.677 42.8371C113.552 42.7851 113.469 42.6758 113.428 42.5093C113.469 42.3428 113.651 42.1659 113.974 41.9786C114.109 41.9058 114.208 41.8433 114.27 41.7913C116.581 39.8766 117.814 37.3583 117.97 34.2364C117.98 33.9763 117.985 33.7161 117.985 33.4559L116.908 33.4403H116.893C116.643 36.4998 115.488 38.8776 113.428 40.5738C113.365 40.6154 113.308 40.6622 113.256 40.7143H112.912C112.808 40.631 112.741 40.527 112.71 40.4021L112.772 40.1992C114.822 38.4509 115.941 36.2032 116.128 33.4559L114.942 33.4403C114.702 34.4393 114.38 35.2666 113.974 35.9222C113.901 36.0367 113.828 36.1407 113.755 36.2344C113.568 36.4633 113.37 36.5518 113.162 36.4998C113.037 36.4685 112.949 36.3749 112.897 36.2188L112.912 36.0315C113.901 34.7931 114.421 33.3103 114.473 31.5828C114.515 31.4996 114.629 31.4267 114.817 31.3643C114.962 31.3851 115.087 31.4632 115.191 31.5984C115.191 31.8482 115.16 32.2176 115.098 32.7067L119.734 32.7535C119.963 32.7535 120.166 32.9096 120.342 33.2218L120.436 33.4091C120.551 33.7733 120.577 34.6683 120.514 36.0939L120.327 39.528C120.254 40.7455 120.041 41.604 119.687 42.1035C119.406 42.5093 119.016 42.7851 118.516 42.9308C118.173 43.0244 117.678 43.0348 117.033 42.962C116.222 42.8684 115.816 42.6602 115.816 42.3376C115.816 42.1815 115.883 42.0619 116.019 41.9786Z" fill="#003B63"/>
<path d="M134.17 37.8734L134.138 38.529L137.198 38.5602C137.354 38.5706 137.51 38.6955 137.666 38.9348C137.729 39.0181 137.76 39.0857 137.76 39.1377V42.1347C137.76 42.322 137.656 42.4885 137.448 42.6342L137.354 42.6967C137.177 42.7487 137.083 42.7747 137.073 42.7747L128.129 42.7591C127.952 42.7591 127.791 42.629 127.645 42.3689C127.593 42.2648 127.567 42.1763 127.567 42.1035L127.598 39.0909C127.598 38.9764 127.718 38.8308 127.957 38.6539C128.04 38.5914 128.108 38.5602 128.16 38.5602H131.032L131.063 37.9046L126.708 37.8422C126.615 37.8422 126.573 37.7329 126.584 37.5144C126.594 37.4832 126.636 37.4467 126.708 37.4051C126.729 37.3843 126.745 37.3687 126.755 37.3583L138.665 37.3895C138.832 37.4623 138.868 37.582 138.774 37.7485C138.743 37.811 138.702 37.8422 138.65 37.8422L134.17 37.8734ZM138.774 36.7495C138.754 36.9056 138.691 37.0045 138.587 37.0461C138.254 37.1918 137.5 37.0721 136.324 36.6871L135.559 36.3905L135.512 36.3593C134.513 36.8068 133.467 37.0305 132.375 37.0305C132.239 36.9785 132.172 36.8692 132.172 36.7027L127.692 36.6246C127.515 36.6246 127.354 36.5102 127.208 36.2812C127.156 36.2084 127.13 36.1408 127.13 36.0783L127.146 32.1916C127.291 31.8794 127.489 31.7233 127.739 31.7233H132.265C132.421 31.7233 132.484 31.817 132.453 32.0043L132.375 32.176L132.328 32.2072L129.331 32.2228L129.315 32.254C129.44 32.3061 129.471 32.4362 129.409 32.6443C129.388 32.7171 129.378 32.7691 129.378 32.8004L132 32.8316C132.083 32.8316 132.125 32.9461 132.125 33.175C132.021 33.2791 131.958 33.3311 131.938 33.3311H130.751L130.72 33.9867C131.563 33.9867 132.016 33.9919 132.078 34.0023C132.224 34.0127 132.359 34.0335 132.484 34.0647C132.505 34.1168 132.515 34.2208 132.515 34.3769L132.406 34.4862L131.017 34.5174L132.14 35.5008C132.161 35.5216 132.172 35.6361 132.172 35.8442C132.047 35.9795 131.943 36.0523 131.86 36.0627L131.688 36.0159L130.47 34.8608C130.241 35.1522 129.893 35.4539 129.424 35.7661C128.821 36.1616 128.425 36.2136 128.238 35.9222C128.238 35.6725 128.295 35.5216 128.41 35.4696C128.961 35.2406 129.305 35.0793 129.44 34.9857C129.596 34.8608 129.747 34.7047 129.893 34.5174L128.113 34.4862C127.978 34.4133 127.931 34.3093 127.973 34.174C127.994 34.1115 128.03 34.0595 128.082 34.0179L128.238 33.9711C128.082 33.9086 127.988 33.8306 127.957 33.7369C127.957 33.5704 128.082 33.3571 128.332 33.0969C128.457 32.9825 128.54 32.8888 128.582 32.816L128.909 32.254L128.238 32.2228L128.004 32.2853L127.895 32.4101L127.864 32.457V35.8442C127.864 35.9482 127.926 36.0367 128.051 36.1095C128.082 36.1304 128.108 36.1408 128.129 36.1408L132.328 36.1876C132.401 36.2396 132.437 36.2968 132.437 36.3593C133.186 36.3593 133.946 36.2344 134.716 35.9847L133.748 35.3447C133.561 35.2094 133.405 35.0689 133.28 34.9232C133.238 34.8192 133.233 34.7307 133.264 34.6579C133.296 34.6058 133.337 34.559 133.389 34.5174C133.129 34.455 133.046 34.3249 133.139 34.1272C133.181 34.0335 133.228 33.9867 133.28 33.9867L137.292 34.0179C137.416 34.0179 137.536 34.1063 137.651 34.2833C137.817 34.6683 137.531 35.1209 136.792 35.6413L136.308 35.9847C136.922 36.1928 137.677 36.3489 138.572 36.4529C138.676 36.505 138.743 36.6038 138.774 36.7495ZM137.026 41.1201V39.3875C136.943 39.2106 136.86 39.1117 136.776 39.0909L134.17 39.0753L134.154 39.7465C134.175 39.9234 134.243 40.0431 134.357 40.1055L135.45 40.1211C135.606 40.1107 135.715 40.0899 135.777 40.0587C135.871 40.0171 135.934 39.8766 135.965 39.6372C135.996 39.4187 136.11 39.3042 136.308 39.2938C136.537 39.2938 136.615 39.5124 136.542 39.9494C136.532 39.991 136.527 40.0275 136.527 40.0587C136.433 40.5478 135.975 40.7819 135.153 40.7611L134.357 40.7299C134.138 40.7299 133.977 40.7091 133.873 40.6675C133.54 40.553 133.389 40.1263 133.42 39.3875C133.431 39.2106 133.436 39.1065 133.436 39.0753H131.735C131.662 39.7933 131.11 40.298 130.08 40.5894C129.653 40.7039 129.227 40.7611 128.8 40.7611C128.634 40.6883 128.561 40.5478 128.582 40.3397C128.602 40.2148 128.67 40.1315 128.785 40.0899C128.857 40.0691 129.019 40.0483 129.268 40.0275C130.028 39.8922 130.543 39.6581 130.814 39.3251C130.887 39.2522 130.944 39.169 130.985 39.0753H128.582C128.509 39.0753 128.436 39.1429 128.363 39.2782L128.332 41.1201H137.026ZM137.026 41.6664H128.332L128.379 42.0723C128.42 42.1764 128.478 42.2284 128.55 42.2284L136.527 42.244C136.818 42.2544 136.979 42.1295 137.011 41.8694C137.021 41.8173 137.026 41.7497 137.026 41.6664ZM130.002 33.9711V33.3467H129.019C128.831 33.6485 128.628 33.8566 128.41 33.9711H130.002ZM133.436 38.529V37.9046H131.781V38.529H133.436ZM136.652 33.6901C136.339 33.5444 136.183 33.2999 136.183 32.9565V32.3477L136.012 32.1916L134.419 32.176C134.284 32.1656 134.201 32.3321 134.17 32.6755L134.138 32.8316C134.055 33.0813 133.805 33.3467 133.389 33.6277C132.879 33.9711 132.562 34.0179 132.437 33.7681C132.427 33.7473 132.421 33.6225 132.421 33.3935C132.473 33.3311 132.661 33.2114 132.983 33.0345C133.108 32.9617 133.207 32.8888 133.28 32.816C133.374 32.7223 133.457 32.5038 133.53 32.1604C133.655 31.8482 133.821 31.6817 134.029 31.6609C135.091 31.6609 135.887 31.6661 136.417 31.6765C136.698 31.6765 136.86 31.9419 136.901 32.4726L136.964 33.1126C136.964 33.1126 136.979 33.1334 136.979 33.1438C137.042 33.175 137.266 33.1906 137.651 33.1906C137.744 33.1178 137.801 32.9513 137.822 32.6911C137.833 32.483 137.9 32.3529 138.025 32.3009C138.265 32.3009 138.41 32.3529 138.462 32.457C138.535 32.6027 138.54 32.8212 138.478 33.1126C138.457 33.2686 138.421 33.3831 138.369 33.456C138.223 33.6745 137.76 33.7577 136.979 33.7057L136.652 33.6901ZM136.574 34.5174H133.795C134.18 34.8608 134.752 35.2354 135.512 35.6413L136.277 35.2198C136.423 35.1157 136.537 35.0065 136.62 34.892L136.652 34.6267C136.641 34.585 136.615 34.5486 136.574 34.5174Z" fill="#003B63"/>
<path d="M145.658 40.1212L145.596 42.8372C145.596 42.9308 145.533 43.0037 145.408 43.0557C145.263 43.0765 145.143 43.0505 145.049 42.9777C144.997 42.9464 144.951 42.8996 144.909 42.8372V32.4102C144.909 32.15 145.159 31.9315 145.658 31.7546L147.516 31.7858C147.661 31.7858 147.833 31.9003 148.031 32.1292C148.135 32.2541 148.182 32.3529 148.171 32.4258C148.161 32.7796 147.948 33.6069 147.531 34.9076C147.458 35.1158 147.406 35.2823 147.375 35.4071C147.313 35.5945 147.479 36.0055 147.875 36.6403C147.989 36.8276 148.067 36.9577 148.109 37.0305C148.483 37.7798 148.603 38.4822 148.468 39.1378C148.416 39.4187 148.301 39.6581 148.124 39.8558C147.823 40.2304 147.386 40.4177 146.813 40.4177C146.47 40.4177 146.085 40.3189 145.658 40.1212ZM147.406 32.6911C147.25 32.535 146.844 32.4726 146.189 32.5038H146.002C145.783 32.5767 145.674 32.6495 145.674 32.7223V39.2314C146.09 39.4916 146.475 39.6217 146.829 39.6217C147.661 39.6217 147.906 39.0025 147.563 37.7642C147.542 37.6913 147.516 37.6133 147.484 37.53C147.474 37.4676 147.292 37.1294 146.938 36.5154C146.657 36.0055 146.543 35.6569 146.595 35.4696L147.235 33.4872C147.349 33.1022 147.406 32.8368 147.406 32.6911ZM156.085 42.9464C155.211 43.1233 154.498 43.139 153.947 42.9933L153.619 42.8528C153.598 42.8424 153.582 42.832 153.572 42.8216C153.385 42.6343 153.281 42.4469 153.26 42.2596L153.229 37.811L151.371 37.7954C151.371 39.1898 151.075 40.3449 150.481 41.2606C150.034 41.9474 149.43 42.4834 148.671 42.8684C148.379 43.0141 148.114 43.0869 147.875 43.0869C147.719 43.0037 147.641 42.8996 147.641 42.7747C147.641 42.5978 147.833 42.4261 148.218 42.2596C148.405 42.1764 148.525 42.1191 148.577 42.0879C149.805 41.2866 150.476 40.2044 150.591 38.8412C150.612 38.5186 150.612 38.1752 150.591 37.811L148.796 37.7798C148.702 37.7798 148.634 37.7069 148.593 37.5612C148.582 37.5404 148.577 37.5196 148.577 37.4988C148.567 37.3843 148.593 37.2855 148.655 37.2022C148.707 37.119 148.775 37.0773 148.858 37.0773L156.304 37.1086C156.491 37.1918 156.548 37.3427 156.475 37.5612L156.366 37.7173C156.345 37.7485 156.319 37.7694 156.288 37.7798L153.994 37.7954V42.0723C154.108 42.3013 154.436 42.3949 154.977 42.3533C155.508 42.3221 155.825 42.192 155.929 41.9631L156.007 40.527C156.028 40.3813 156.054 40.2512 156.085 40.1368C156.116 40.0951 156.267 40.0743 156.538 40.0743C156.663 40.22 156.715 40.5686 156.694 41.1201C156.694 41.9006 156.569 42.4417 156.319 42.7435C156.257 42.8164 156.179 42.884 156.085 42.9464ZM155.461 34.9857L155.648 33.7994C155.659 33.3519 155.44 33.1282 154.993 33.1282L149.982 33.1438C149.836 33.1646 149.701 33.2583 149.576 33.4248C149.545 33.4664 149.524 33.5028 149.514 33.534C149.472 33.6693 149.462 34.0179 149.482 34.5799L149.451 35.0325C149.43 35.1366 149.321 35.2094 149.123 35.2511C149.092 35.2615 148.999 35.225 148.842 35.1418L148.749 34.9233V33.8306C148.749 33.0189 149.014 32.5611 149.545 32.457C149.815 32.4154 150.528 32.3998 151.683 32.4102C151.839 32.4206 151.97 32.4206 152.074 32.4102L152.105 31.5673C152.136 31.3799 152.24 31.2759 152.417 31.2551C152.479 31.2447 152.557 31.2603 152.651 31.3019C152.682 31.3227 152.708 31.3383 152.729 31.3487C152.823 31.5777 152.859 31.9315 152.838 32.4102L155.648 32.4258C155.856 32.4362 156.064 32.5975 156.273 32.9097C156.335 33.0033 156.377 33.0866 156.397 33.1594C156.481 33.482 156.455 33.9139 156.319 34.455C156.257 34.7047 156.184 34.9076 156.101 35.0637C156.07 35.1366 155.992 35.173 155.867 35.173C155.679 35.173 155.544 35.1106 155.461 34.9857ZM154.836 35.2979H150.185C150.008 35.1834 149.946 35.0325 149.998 34.8452C150.008 34.8036 150.029 34.7516 150.06 34.6891L150.232 34.5955L154.852 34.6111C155.039 34.6839 155.102 34.8296 155.039 35.0481C154.998 35.1626 154.93 35.2458 154.836 35.2979Z" fill="#003B63"/>
<path d="M60.4418 21.3405C60.4418 21.7828 60.3768 22.225 60.2467 22.6621C60.1166 23.0992 59.9085 23.4972 59.6197 23.8536C59.3309 24.21 58.9485 24.5014 58.475 24.7225C58.0016 24.9437 57.4136 25.0555 56.7112 25.0555C55.7876 25.0555 55.0176 24.8214 54.401 24.3531C53.7844 23.8848 53.3916 23.1824 53.2199 22.2484L54.7704 21.9337C54.8693 22.4514 55.08 22.8598 55.4078 23.1616C55.733 23.4634 56.1753 23.6143 56.7294 23.6143C57.1717 23.6143 57.5359 23.5336 57.8194 23.3749C58.103 23.2162 58.3215 23.0055 58.475 22.7479C58.6285 22.4904 58.7352 22.1912 58.7976 21.853C58.8601 21.5148 58.8887 21.1662 58.8887 20.8098V11.6445H60.4392V21.3405H60.4418Z" fill="#003B63"/>
<path d="M63.6937 11.6445H67.5726C68.1762 11.6445 68.7511 11.7018 69.3001 11.8188C69.849 11.9359 70.3355 12.1336 70.7595 12.4094C71.1836 12.6878 71.5218 13.0572 71.7767 13.5176C72.0291 13.9807 72.1566 14.5479 72.1566 15.2269C72.1566 15.9423 72.0213 16.5328 71.7507 17.0011C71.4802 17.4694 71.1316 17.8388 70.7075 18.1094C70.2835 18.3799 69.8178 18.5725 69.3131 18.6817C68.8084 18.7936 68.3271 18.8482 67.8718 18.8482H65.2495V24.7225H63.6989V11.6445H63.6937ZM65.2442 17.407H67.8666C68.6419 17.407 69.274 17.2327 69.7605 16.8814C70.247 16.5302 70.489 15.9865 70.489 15.2477C70.489 14.5088 70.2444 13.9651 69.7605 13.6139C69.274 13.2627 68.6419 13.0884 67.8666 13.0884H65.2442V17.4096V17.407Z" fill="#003B63"/>
<path d="M79.7817 11.6445H83.6606C84.2642 11.6445 84.8391 11.7018 85.3881 11.8188C85.937 11.9359 86.4235 12.1336 86.8475 12.4094C87.2716 12.6878 87.6098 13.0572 87.8647 13.5176C88.1171 13.9807 88.2446 14.5479 88.2446 15.2269C88.2446 15.9423 88.1093 16.5328 87.8387 17.0011C87.5682 17.4694 87.2196 17.8388 86.7955 18.1094C86.3715 18.3799 85.9058 18.5725 85.4011 18.6817C84.8964 18.7936 84.4151 18.8482 83.9598 18.8482H81.3375V24.7225H79.7869V11.6445H79.7817ZM81.3323 17.407H83.9546C84.7299 17.407 85.3621 17.2327 85.8485 16.8814C86.335 16.5302 86.577 15.9865 86.577 15.2477C86.577 14.5088 86.3324 13.9651 85.8485 13.6139C85.3621 13.2627 84.7299 13.0884 83.9546 13.0884H81.3323V17.4096V17.407Z" fill="#003B63"/>
<path d="M98.1955 23.1513C97.6778 23.8173 97.1106 24.2803 96.4967 24.5457C95.8801 24.8111 95.1673 24.9437 94.353 24.9437C93.6766 24.9437 93.0652 24.8241 92.5241 24.5847C91.983 24.3454 91.5225 24.0202 91.1479 23.6143C90.7732 23.2085 90.4819 22.7272 90.279 22.1731C90.076 21.619 89.9746 21.0284 89.9746 20.3988C89.9746 19.7328 90.0864 19.1215 90.3076 18.5595C90.5287 18.0002 90.8357 17.5189 91.2311 17.1183C91.624 16.7176 92.0922 16.408 92.636 16.1843C93.1771 15.9632 93.7676 15.8513 94.4102 15.8513C95.0138 15.8513 95.5679 15.9528 96.0726 16.1557C96.5773 16.3586 97.0118 16.6552 97.376 17.0428C97.7402 17.4305 98.0186 17.9039 98.2163 18.4659C98.414 19.0252 98.5129 19.6626 98.5129 20.378V20.8385H91.5303C91.5537 21.2079 91.6448 21.5617 91.7983 21.8999C91.9518 22.2381 92.1521 22.5347 92.3992 22.787C92.6464 23.0394 92.9351 23.2397 93.2681 23.388C93.6011 23.5363 93.9628 23.6091 94.3582 23.6091C94.9852 23.6091 95.5159 23.4973 95.9477 23.2761C96.3796 23.055 96.7672 22.7272 97.1106 22.298L98.2007 23.1487L98.1955 23.1513ZM96.9571 19.6236C96.9311 18.8847 96.6918 18.2942 96.2365 17.8493C95.7812 17.407 95.1517 17.1833 94.353 17.1833C93.5543 17.1833 92.9065 17.4044 92.4122 17.8493C91.9205 18.2916 91.624 18.8847 91.5251 19.6236H96.9545H96.9571Z" fill="#003B63"/>
<path d="M105.475 17.2952H102.925V21.6163C102.925 21.8999 102.93 22.1601 102.943 22.402C102.956 22.6414 103.006 22.8521 103.092 23.029C103.177 23.2085 103.308 23.349 103.479 23.453C103.651 23.5571 103.898 23.6091 104.218 23.6091C104.426 23.6091 104.642 23.5857 104.863 23.5363C105.084 23.4869 105.295 23.414 105.49 23.3152L105.545 24.6263C105.298 24.7382 105.025 24.8162 104.723 24.8657C104.421 24.9151 104.135 24.9385 103.864 24.9385C103.347 24.9385 102.936 24.8709 102.626 24.7356C102.319 24.6003 102.077 24.4104 101.905 24.1633C101.734 23.9161 101.619 23.6117 101.564 23.2501C101.51 22.8859 101.481 22.4827 101.481 22.0404V17.2926H99.5977V16.0724H101.481V13.6166H102.922V16.0724H105.472V17.2926L105.475 17.2952Z" fill="#003B63"/>
<path d="M121.802 14.3398C121.407 13.8091 120.923 13.4137 120.342 13.1483C119.762 12.883 119.161 12.7503 118.532 12.7503C117.806 12.7503 117.137 12.8986 116.529 13.1926C115.92 13.4891 115.392 13.8846 114.949 14.3841C114.507 14.8836 114.161 15.4611 113.914 16.1193C113.667 16.7775 113.545 17.4643 113.545 18.1797C113.545 18.9446 113.667 19.6548 113.914 20.313C114.161 20.9712 114.502 21.5435 114.939 22.03C115.376 22.5165 115.899 22.9015 116.51 23.1851C117.119 23.4687 117.793 23.6092 118.532 23.6092C119.333 23.6092 120.046 23.4531 120.675 23.1383C121.305 22.8235 121.851 22.3708 122.32 21.7803L123.483 22.7585C122.892 23.5467 122.182 24.1243 121.349 24.4937C120.517 24.8631 119.58 25.0478 118.532 25.0478C117.595 25.0478 116.721 24.8761 115.909 24.5301C115.098 24.1867 114.393 23.708 113.794 23.0993C113.196 22.4905 112.73 21.7673 112.39 20.9296C112.051 20.0919 111.882 19.1735 111.882 18.1771C111.882 17.1807 112.046 16.317 112.371 15.4793C112.697 14.6416 113.157 13.9158 113.748 13.2992C114.338 12.6827 115.041 12.1962 115.852 11.8398C116.664 11.4833 117.559 11.3038 118.529 11.3038C119.416 11.3038 120.27 11.4651 121.087 11.7851C121.906 12.1051 122.593 12.628 123.147 13.3565L121.799 14.3346L121.802 14.3398Z" fill="#003B63"/>
<path d="M125.514 10.7574H126.956V24.7226H125.514V10.7574Z" fill="#003B63"/>
<path d="M129.633 12.6956C129.633 12.412 129.734 12.1675 129.937 11.9568C130.14 11.7486 130.39 11.642 130.686 11.642C130.983 11.642 131.23 11.746 131.435 11.9568C131.638 12.1675 131.74 12.412 131.74 12.6956C131.74 13.0026 131.641 13.2549 131.443 13.4526C131.246 13.6504 130.993 13.7492 130.686 13.7492C130.379 13.7492 130.127 13.6504 129.929 13.4526C129.731 13.2549 129.633 13.0026 129.633 12.6956ZM129.966 16.075H131.407V24.72H129.966V16.0776V16.075Z" fill="#003B63"/>
<path d="M134.269 18.1277C134.269 17.7348 134.256 17.3654 134.232 17.0194C134.206 16.6734 134.196 16.3612 134.196 16.0777H135.562C135.562 16.3118 135.567 16.5459 135.58 16.7801C135.593 17.0142 135.598 17.2536 135.598 17.5007H135.634C135.733 17.2926 135.871 17.0897 136.051 16.8919C136.23 16.6942 136.441 16.5199 136.688 16.3664C136.935 16.2129 137.211 16.0881 137.521 15.997C137.827 15.9034 138.16 15.8591 138.517 15.8591C139.084 15.8591 139.573 15.945 139.984 16.1167C140.395 16.2884 140.739 16.5303 141.009 16.8373C141.28 17.1443 141.48 17.5189 141.61 17.9534C141.74 18.3904 141.805 18.8665 141.805 19.3842V24.7226H140.364V19.5325C140.364 18.8067 140.203 18.2343 139.883 17.8155C139.563 17.3966 139.063 17.1885 138.387 17.1885C137.919 17.1885 137.515 17.2692 137.177 17.4279C136.839 17.5892 136.561 17.8155 136.345 18.1121C136.129 18.4086 135.97 18.7599 135.863 19.1657C135.759 19.5715 135.707 20.0216 135.707 20.5133V24.7252H134.266V18.1303L134.269 18.1277Z" fill="#003B63"/>
<path d="M144.337 12.6956C144.337 12.412 144.438 12.1675 144.641 11.9568C144.844 11.7486 145.094 11.642 145.39 11.642C145.687 11.642 145.934 11.746 146.139 11.9568C146.342 12.1675 146.444 12.412 146.444 12.6956C146.444 13.0026 146.345 13.2549 146.147 13.4526C145.95 13.6504 145.697 13.7492 145.39 13.7492C145.083 13.7492 144.831 13.6504 144.633 13.4526C144.435 13.2549 144.337 13.0026 144.337 12.6956ZM144.67 16.075H146.111V24.72H144.67V16.0776V16.075Z" fill="#003B63"/>
<path d="M155.123 18.2369C154.816 17.8675 154.483 17.5996 154.126 17.4331C153.77 17.2666 153.374 17.1833 152.945 17.1833C152.464 17.1833 152.04 17.2666 151.67 17.4331C151.301 17.5996 150.997 17.8311 150.757 18.1251C150.518 18.419 150.336 18.7625 150.213 19.1501C150.091 19.5377 150.029 19.954 150.029 20.3962C150.029 20.8385 150.099 21.2547 150.242 21.6424C150.385 22.03 150.58 22.3708 150.833 22.6674C151.085 22.964 151.389 23.1929 151.746 23.3594C152.102 23.5259 152.503 23.6091 152.945 23.6091C153.892 23.6091 154.626 23.2527 155.143 22.5373L156.215 23.5545C155.796 24.0358 155.305 24.387 154.738 24.6081C154.17 24.8293 153.575 24.9411 152.945 24.9411C152.279 24.9411 151.67 24.8293 151.116 24.6081C150.562 24.387 150.091 24.0722 149.704 23.6664C149.316 23.2605 149.014 22.7792 148.798 22.2251C148.582 21.671 148.476 21.0622 148.476 20.3962C148.476 19.7302 148.582 19.1397 148.798 18.5855C149.014 18.0314 149.319 17.5501 149.711 17.1443C150.104 16.7384 150.578 16.4211 151.124 16.1921C151.673 15.9632 152.279 15.8513 152.942 15.8513C153.606 15.8513 154.189 15.9632 154.761 16.1843C155.333 16.4054 155.835 16.7515 156.267 17.2197L155.123 18.2369Z" fill="#003B63"/>
</g>
<defs>
<clipPath id="clip0_5_243">
<rect width="156.699" height="44" fill="white"/>
</clipPath>
</defs>
</svg>
