<svg width="20" height="20" viewBox="0 0 20 20" fill="none" xmlns="http://www.w3.org/2000/svg">
<path fill-rule="evenodd" clip-rule="evenodd" d="M3.71832 2.50823C5.11572 2.72737 6.57745 3.38595 7.6798 4.27302C8.41054 4.04429 9.19408 3.92059 10.0076 3.92059C10.8266 3.92059 11.6152 4.04595 12.3502 4.27762C13.4788 3.40547 14.8729 2.72237 16.2898 2.50925C16.5914 2.46487 16.9051 2.61721 17.0428 2.89242C17.5956 4.1974 17.6143 5.75347 17.2744 7.11226L17.2691 7.13333C17.178 7.49795 17.0603 7.9692 16.6824 8.12773C16.9633 8.8178 17.1178 9.56621 17.1178 10.352C17.1178 12.3216 16.3085 14.348 15.5829 16.1649L15.5094 16.3488C15.0688 17.4535 14.0829 18.2144 12.9406 18.4264L11.3265 18.726C10.8288 18.8184 10.332 18.639 10.0076 18.2774C9.68326 18.639 9.18654 18.8184 8.68883 18.726L7.07471 18.4264C5.93243 18.2144 4.94651 17.4535 4.50586 16.3488L4.43246 16.1649C3.7068 14.348 2.89746 12.3216 2.89746 10.352C2.89746 9.56621 3.05198 8.8178 3.33293 8.12773C2.95464 7.96904 2.83995 7.50923 2.74876 7.1436L2.74093 7.11226C2.41615 5.81414 2.35372 4.13148 2.97252 2.89242C3.10951 2.61868 3.41581 2.46127 3.71832 2.50823ZM6.1573 4.94403C5.35412 5.41302 4.65702 6.02722 4.11593 6.74912C3.90403 5.88472 3.90165 4.92343 4.08836 4.05386C4.80895 4.26184 5.51411 4.55672 6.1573 4.94403ZM15.8993 6.74912C15.3618 6.03194 14.6703 5.42104 13.8737 4.95323C14.5129 4.56038 15.2011 4.24564 15.9249 4.04463C16.1141 4.91665 16.1119 5.88192 15.8993 6.74912ZM7.7705 5.74428C8.45531 5.48562 9.21107 5.34147 10.0076 5.34147C10.8043 5.34147 11.56 5.48562 12.2448 5.74428C14.3131 6.52553 15.6958 8.32408 15.6958 10.352C15.6958 12.0677 14.977 13.858 14.3351 15.4568C14.2857 15.5799 14.2366 15.702 14.1885 15.8227C13.9389 16.4484 13.3715 16.9012 12.6808 17.0294L11.0668 17.329L10.6561 16.417C10.5412 16.162 10.2874 15.998 10.0076 15.998C9.72784 15.998 9.47408 16.162 9.35925 16.417L8.94849 17.329L7.33443 17.0294C6.64385 16.9012 6.0764 16.4484 5.82684 15.8227C5.77874 15.7021 5.72983 15.5803 5.68046 15.4573C5.03856 13.8586 4.3195 12.0677 4.3195 10.352C4.3195 8.32408 5.7022 6.52553 7.7705 5.74428ZM8.9411 13.1563C8.67176 13.1563 8.42559 13.3083 8.30514 13.549C8.1847 13.7897 8.21069 14.0777 8.37228 14.293L9.43881 15.7139C9.57312 15.8928 9.7838 15.998 10.0076 15.998C10.2315 15.998 10.4421 15.8928 10.5764 15.7139L11.643 14.293C11.8046 14.0777 11.8305 13.7897 11.7101 13.549C11.5896 13.3083 11.3435 13.1563 11.0742 13.1563H8.9411ZM8.31635 9.69026C8.31635 10.2789 7.83885 10.7559 7.24982 10.7559C6.66079 10.7559 6.18329 10.2789 6.18329 9.69026C6.18329 9.10173 6.66079 8.62463 7.24982 8.62463C7.83885 8.62463 8.31635 9.10173 8.31635 9.69026ZM12.8517 10.6697C13.4407 10.6697 13.9182 10.1927 13.9182 9.60408C13.9182 9.01555 13.4407 8.53845 12.8517 8.53845C12.2627 8.53845 11.7852 9.01555 11.7852 9.60408C11.7852 10.1927 12.2627 10.6697 12.8517 10.6697Z" fill="#323232"/>
</svg>
