<svg width="20" height="20" viewBox="0 0 20 20" fill="none" xmlns="http://www.w3.org/2000/svg">
<path fill-rule="evenodd" clip-rule="evenodd" d="M10.0165 11.4062C9.77382 11.4062 9.52573 11.4432 9.31548 11.5247C9.21232 11.5646 9.08615 11.6276 8.97507 11.7294C8.86357 11.8316 8.71948 12.0208 8.71948 12.2916C8.71948 12.5624 8.86357 12.7516 8.97507 12.8538C9.08615 12.9556 9.21232 13.0185 9.31548 13.0585C9.52573 13.14 9.77382 13.177 10.0165 13.177C10.2592 13.177 10.5072 13.14 10.7176 13.0585C10.8206 13.0185 10.9468 12.9556 11.0579 12.8538C11.1695 12.7516 11.3136 12.5624 11.3136 12.2916C11.3136 12.0208 11.1695 11.8316 11.0579 11.7294C10.9468 11.6276 10.8206 11.5646 10.7176 11.5247C10.5072 11.4432 10.2592 11.4062 10.0165 11.4062Z" fill="#323232"/>
<path d="M11.6971 9.49708C11.8346 9.27508 12.1062 9.0105 12.5136 9.0105C12.9209 9.0105 13.1925 9.27508 13.33 9.49708C13.4734 9.72867 13.5418 10.0094 13.5418 10.2866C13.5418 10.5637 13.4734 10.8444 13.33 11.076C13.1925 11.298 12.9209 11.5626 12.5136 11.5626C12.1062 11.5626 11.8346 11.298 11.6971 11.076C11.5537 10.8444 11.4854 10.5637 11.4854 10.2866C11.4854 10.0094 11.5537 9.72867 11.6971 9.49708Z" fill="#323232"/>
<path d="M7.51358 9.0105C7.10622 9.0105 6.83463 9.27508 6.69711 9.49708C6.55367 9.72867 6.48535 10.0094 6.48535 10.2866C6.48535 10.5637 6.55367 10.8444 6.69711 11.076C6.83463 11.298 7.10622 11.5626 7.51358 11.5626C7.92094 11.5626 8.19253 11.298 8.33004 11.076C8.47346 10.8444 8.54179 10.5637 8.54179 10.2866C8.54179 10.0094 8.47346 9.72867 8.33004 9.49708C8.19253 9.27508 7.92094 9.0105 7.51358 9.0105Z" fill="#323232"/>
<path fill-rule="evenodd" clip-rule="evenodd" d="M5.07888 2.5C4.56774 2.5 3.97869 2.64893 3.50719 3.05513C3.01839 3.47625 2.72487 4.11484 2.72487 4.94792V6.51042L2.72488 6.51287C2.72584 6.75784 2.76742 7.24798 2.90717 7.65767C2.95288 7.79175 3.02591 7.9695 3.14787 8.12983C2.9112 8.599 2.79904 9.08292 2.74806 9.54958C2.7055 9.93925 2.70493 10.3483 2.7117 10.7259C2.16084 10.9172 1.59048 11.1541 1.3275 11.3239C1.03754 11.5112 0.954287 11.8981 1.14155 12.188C1.32882 12.478 1.7157 12.5613 2.00565 12.374C2.10267 12.3113 2.38889 12.1803 2.7654 12.0366C2.8228 12.4358 2.93914 12.7996 3.10159 13.1302C2.97168 13.2112 2.8569 13.2862 2.76558 13.346C2.73062 13.3688 2.6991 13.3894 2.6715 13.4072C2.38153 13.5945 2.29828 13.9814 2.48555 14.2713C2.67281 14.5613 3.05969 14.6446 3.34965 14.4573C3.38392 14.4352 3.42045 14.4113 3.45899 14.3862C3.5683 14.3148 3.6939 14.2328 3.83068 14.149C4.32195 14.6511 4.93205 15.0387 5.5658 15.3302C7.04982 16.0128 8.80734 16.25 9.99992 16.25C11.1924 16.25 12.95 16.0128 14.434 15.3302C15.0678 15.0387 15.6778 14.6511 16.1691 14.149C16.3059 14.2328 16.4315 14.3148 16.5408 14.3862C16.5793 14.4113 16.6158 14.4352 16.6501 14.4573C16.9401 14.6446 17.3269 14.5613 17.5143 14.2713C17.7015 13.9814 17.6183 13.5945 17.3283 13.4072C17.3007 13.3894 17.2692 13.3688 17.2342 13.346C17.1428 13.2862 17.0281 13.2112 16.8983 13.1302C17.0607 12.7996 17.1771 12.4358 17.2344 12.0365C17.6111 12.1803 17.8974 12.3113 17.9945 12.374C18.2844 12.5613 18.6713 12.478 18.8586 12.188C19.0458 11.8981 18.9626 11.5112 18.6727 11.3239C18.4096 11.1541 17.8391 10.9172 17.2881 10.7258C17.2949 10.3482 17.2943 9.93917 17.2518 9.54958C17.2008 9.08292 17.0886 8.599 16.8519 8.12983C16.9739 7.9695 17.0469 7.79175 17.0927 7.65767C17.2324 7.24798 17.274 6.75784 17.2749 6.51287L17.275 6.51042V4.94801C17.275 4.11493 16.9814 3.47635 16.4927 3.05523C16.0212 2.64902 15.4321 2.50009 14.921 2.50009C14.5806 2.50009 14.2285 2.63071 13.9446 2.75897C13.6437 2.89493 13.3292 3.07158 13.0463 3.23447C12.9855 3.26949 12.9264 3.3037 12.869 3.33693L12.8673 3.3379C12.6473 3.46533 12.4521 3.57842 12.2781 3.66806C12.17 3.72375 12.0861 3.76192 12.0236 3.78505C11.9973 3.79481 11.9804 3.79972 11.9718 3.80202C11.7606 3.80085 11.626 3.78361 11.4316 3.7587C11.3899 3.75336 11.3454 3.74766 11.2968 3.74169C11.008 3.70619 10.6433 3.67197 9.99992 3.67197C9.3565 3.67197 8.99192 3.70619 8.703 3.74169C8.65442 3.74766 8.61 3.75336 8.56825 3.7587C8.37392 3.78361 8.23932 3.80085 8.02807 3.80202C8.01944 3.79972 8.0026 3.7948 7.97629 3.78505C7.91382 3.76192 7.82987 3.72374 7.72178 3.66805C7.54779 3.5784 7.3526 3.46535 7.13255 3.3379C7.07463 3.30436 7.01499 3.26981 6.95355 3.23443C6.67069 3.07153 6.3562 2.89487 6.05527 2.75889C5.7714 2.63062 5.41925 2.5 5.07888 2.5ZM5.13477 13.6365C5.41313 13.8464 5.73384 14.0316 6.0882 14.1946C7.36395 14.7814 8.93142 15 9.99992 15C11.0684 15 12.6358 14.7814 13.9116 14.1946C14.266 14.0316 14.5867 13.8464 14.865 13.6365C14.5713 13.5853 14.3481 13.3292 14.3481 13.0208C14.3481 12.6757 14.6279 12.3958 14.9731 12.3958C15.2458 12.3958 15.5244 12.464 15.7831 12.5587C15.9153 12.2821 15.9964 11.9792 16.0187 11.6476C15.7706 11.587 15.5993 11.5625 15.511 11.5625C15.1658 11.5625 14.886 11.2827 14.886 10.9375C14.886 10.5923 15.1658 10.3125 15.511 10.3125C15.6733 10.3125 15.8568 10.3368 16.0418 10.3728C16.0419 10.1427 16.0344 9.91683 16.0092 9.68533C15.9504 9.1475 15.7982 8.67008 15.4389 8.24558C15.3104 8.09375 15.1506 7.94275 14.95 7.79542C14.6718 7.59117 14.6118 7.19999 14.8162 6.92176C15.0204 6.64353 15.4116 6.58359 15.6898 6.78788C15.7891 6.86077 15.8829 6.93568 15.9714 7.01255C16.0081 6.82238 16.0244 6.62348 16.025 6.50906V4.94801C16.025 4.42693 15.853 4.15405 15.6768 4.00225C15.4833 3.83555 15.2078 3.75009 14.921 3.75009C14.8623 3.75009 14.7157 3.78223 14.4593 3.89809C14.2198 4.00625 13.9525 4.1551 13.6701 4.31771C13.6171 4.34825 13.5631 4.37953 13.5087 4.41107C13.2855 4.54036 13.0548 4.67402 12.8506 4.77924C12.7218 4.84561 12.5875 4.90916 12.4578 4.95722C12.338 5.0016 12.1723 5.05208 11.9949 5.05208C11.6851 5.05208 11.4679 5.02397 11.2594 4.997C11.221 4.99202 11.1828 4.98707 11.1444 4.98236C10.9038 4.9528 10.5902 4.92197 9.99992 4.92197C9.40975 4.92197 9.096 4.9528 8.85542 4.98236C8.81709 4.98707 8.77892 4.99202 8.74042 4.99699C8.532 5.02397 8.3148 5.05208 8.00492 5.05208C7.82755 5.05208 7.66188 5.00159 7.54208 4.95722C7.41231 4.90915 7.27805 4.84559 7.14924 4.77922C6.94503 4.674 6.71435 4.54032 6.49124 4.41104C6.4368 4.37949 6.38279 4.3482 6.32975 4.31765C6.04735 4.15503 5.77995 4.00617 5.54057 3.89801C5.28413 3.78213 5.13752 3.75 5.07888 3.75C4.79202 3.75 4.51656 3.83545 4.32306 4.00216C4.14686 4.15396 3.97487 4.42682 3.97487 4.94792V6.50907C3.97542 6.62349 3.99171 6.82238 4.02838 7.01255C4.11695 6.93568 4.21075 6.86077 4.31 6.78788C4.58824 6.58359 4.9794 6.64353 5.18369 6.92177C5.38798 7.19999 5.32804 7.59117 5.04981 7.79542C4.84922 7.94275 4.6894 8.09375 4.56093 8.24558C4.20169 8.67008 4.04941 9.1475 3.99067 9.68533C3.96538 9.91683 3.95789 10.1427 3.95796 10.3729C4.1431 10.3369 4.32676 10.3125 4.48916 10.3125C4.83434 10.3125 5.11416 10.5923 5.11416 10.9375C5.11416 11.2827 4.83434 11.5625 4.48916 11.5625C4.40085 11.5625 4.22941 11.587 3.98115 11.6476C4.00345 11.9792 4.08457 12.2821 4.21673 12.5586C4.47541 12.464 4.75404 12.3958 5.0267 12.3958C5.37189 12.3958 5.6517 12.6757 5.6517 13.0208C5.6517 13.3292 5.42845 13.5853 5.13477 13.6365Z" fill="#323232"/>
</svg>
