<svg width="14" height="12" viewBox="0 0 14 12" fill="none" xmlns="http://www.w3.org/2000/svg">
<g clip-path="url(#clip0_3_90)">
<path d="M1.87155 5.54359C1.0308 6.17183 0.00893906 5.28092 0.0111751 4.38562C0.0111751 4.38562 0.0111751 4.38489 0.0111751 4.38343C-0.117396 3.46078 0.834032 2.38599 1.75863 2.9201C2.69105 3.42794 2.69552 4.9865 1.87155 5.54359Z" fill="white"/>
<path d="M3.59552 2.88401C2.31539 1.33312 4.45974 -1.32212 5.83043 0.773834C6.75838 2.19558 4.96956 4.52575 3.59552 2.88401Z" fill="white"/>
<path d="M9.019 0.0218805C10.8045 0.296598 10.6614 3.45749 8.80211 3.43231C6.87689 3.28565 7.07813 -0.155427 9.019 0.0218805Z" fill="white"/>
<path d="M11.1197 10.8365C10.0297 12.6665 7.61589 11.653 5.87515 11.8862C1.41092 12.7825 0.926824 8.16379 3.74869 5.81283C4.96844 4.7052 6.82099 4.06602 8.37838 4.90768C10.4668 5.85113 12.4479 8.65084 11.1197 10.8365Z" fill="white"/>
<path d="M13.0684 5.39034C11.9113 6.53518 10.5283 4.72051 11.1846 3.54941C11.3366 3.20355 11.6519 2.89709 12.0186 2.81391C13.3949 2.54028 13.9617 4.56071 13.0684 5.39034Z" fill="white"/>
</g>
<defs>
<clipPath id="clip0_3_90">
<rect width="13.5" height="12" fill="white"/>
</clipPath>
</defs>
</svg>
