<svg width="14" height="12" viewBox="0 0 14 12" fill="none" xmlns="http://www.w3.org/2000/svg">
<path fill-rule="evenodd" clip-rule="evenodd" d="M3.48658 2.88401C2.24524 1.33312 4.32461 -1.32212 5.65376 0.773834C6.55359 2.19558 4.81898 4.52575 3.48658 2.88401ZM1.81485 5.54359C0.99958 6.17183 0.00868205 5.28092 0.0108503 4.38562V4.38343C-0.113825 3.46078 0.808772 2.38599 1.70535 2.9201C2.60952 3.42794 2.61385 4.9865 1.81485 5.54359ZM8.74571 0.0218805C10.4771 0.296598 10.3383 3.45749 8.53538 3.43231C6.66851 3.28565 6.86365 -0.155427 8.74571 0.0218805ZM10.7828 10.8365C10.0466 12.111 8.68792 12.0063 7.36066 11.9041C6.78211 11.8595 6.20955 11.8154 5.69713 11.8862C1.36818 12.7825 0.898752 8.16379 3.6351 5.81283C4.81789 4.7052 6.6143 4.06602 8.1245 4.90768C10.1497 5.85113 12.0707 8.65084 10.7828 10.8365ZM10.8457 3.54941C10.2093 4.72051 11.5503 6.53518 12.6724 5.39034C13.5386 4.56071 12.989 2.54028 11.6544 2.81391C11.2988 2.89709 10.9931 3.20355 10.8457 3.54941Z" fill="#FFF"/>
</svg>
