<svg width="193" height="55" viewBox="0 0 193 55" fill="none" xmlns="http://www.w3.org/2000/svg">
<g clip-path="url(#clip0_22_3455)">
<path d="M13.4994 28.7641C10.4586 32.9905 8.05542 37.3386 7.35369 42.4557C6.84422 46.1822 7.12299 49.8383 8.21242 53.4398C8.28292 53.6673 8.347 53.898 8.43352 54.1928H0.00961267V53.5712C0.00961267 40.8985 0.0128169 28.229 0 15.5595C0 15.1269 0.115352 14.8834 0.503063 14.6527C8.61616 9.83674 16.7196 5.00798 24.8167 0.163194C25.2076 -0.0707146 25.4768 -0.0450808 25.8517 0.179215C33.9648 4.99196 42.0875 9.79188 50.2102 14.5886C50.4986 14.7584 50.6331 14.9411 50.6331 15.2967C50.6235 28.1297 50.6235 40.9626 50.6235 53.7955C50.6235 53.8756 50.6139 53.9557 50.6075 54.0903H44.2183C44.5868 52.5971 45.0354 51.1232 45.3109 49.6204C47.4674 37.9314 44.9713 27.3638 37.4702 18.0844C35.3202 15.4217 32.7055 13.2268 29.5237 11.817C28.0562 11.1665 26.5342 10.6538 24.9064 10.641C22.7628 10.6218 20.8242 11.4132 18.9562 12.3457C18.0302 12.8071 17.4117 13.637 16.9728 14.579C16.8863 14.7616 16.7741 14.9411 16.7357 15.1365C16.3672 16.9693 15.204 18.0267 13.4898 18.6612C12.4516 19.0457 11.4871 19.6289 10.4938 20.1287C8.66102 21.0515 8.17397 22.8908 9.30506 24.6082C9.98436 25.64 10.6989 26.6461 11.3494 27.6939C11.8396 28.4853 12.3523 29.1518 13.5026 28.7641H13.4994Z" fill="#F9A543"/>
<path d="M37.5727 21.3016C37.4221 21.0805 37.2427 20.8722 37.0697 20.6447C36.9799 21.4458 36.9832 22.1988 36.7973 22.9069C36.1853 25.2428 33.9391 26.7071 31.52 26.4283C29.1681 26.156 27.3288 24.1117 27.2711 21.6989C27.2487 20.7088 27.3064 19.7123 27.2071 18.7286C26.9732 16.4151 25.605 14.624 24.3104 12.8104C24.2239 12.6854 23.9099 12.6277 23.7401 12.6758C22.766 12.9482 21.8047 13.2558 20.8435 13.5666C19.7765 13.9126 19.0363 14.6079 18.623 15.6525C18.2737 16.5369 17.9469 17.4309 17.5399 18.2864C17.3829 18.6228 17.0817 18.9529 16.7613 19.1419C15.957 19.6097 15.1079 20.0007 14.2684 20.4012C13.9672 20.5454 13.8871 20.696 13.9288 21.0548C13.9961 21.5867 13.9832 22.1443 13.8871 22.673C13.6917 23.7848 13.0092 24.6051 12.0831 25.2652C12.3523 25.6753 12.6246 26.0502 12.8553 26.4476C13.038 26.7648 13.2495 26.8769 13.634 26.8417C16.1365 26.5982 18.6358 26.3322 21.1447 26.1912C22.2886 26.1271 23.08 25.8452 23.4517 24.6628C23.6504 24.0316 24.2752 23.8682 24.7879 24.1405C25.2781 24.3969 25.4415 24.9255 25.1756 25.4927C24.9 26.0791 24.5956 26.6494 24.3104 27.2326C24.0926 27.6748 23.7433 27.8734 23.2498 27.9119C22.0194 28.008 20.789 28.1394 19.4817 28.2611C19.4817 29.1872 19.4657 30.0555 19.4977 30.9239C19.5041 31.0712 19.6803 31.2635 19.8277 31.3436C20.4846 31.7025 21.1479 32.0485 21.8336 32.3561C24.1791 33.4167 25.5441 35.2047 25.9542 37.7456C26.0407 38.2904 26.1593 38.8864 26.4541 39.3349C27.3641 40.7128 27.5115 42.097 26.7745 43.5773C26.7072 43.7119 26.6079 43.9458 26.6591 44.0035C27.191 44.5899 27.4826 45.3717 28.3285 45.6889C32.0486 47.0988 34.2596 49.7775 34.9292 53.7027C34.9901 54.0616 35.1151 54.1705 35.4708 54.1673C37.5375 54.1513 39.6042 54.1481 41.6741 54.1609C42.0266 54.1609 42.1548 54.0327 42.2573 53.7123C43.1545 50.8894 43.8114 48.0152 44.0292 45.0609C44.6637 36.3935 42.5104 28.4694 37.5791 21.3048L37.5727 21.3016ZM21.0646 20.1192C20.35 20.1256 19.7444 19.5392 19.7252 18.8247C19.706 18.0877 20.3148 17.4597 21.0518 17.4565C21.7695 17.4565 22.3719 18.0365 22.3911 18.751C22.4071 19.4912 21.8047 20.1128 21.0614 20.1192H21.0646ZM39.6779 35.1342C37.781 37.0503 35.8713 38.9472 33.9584 40.8473C33.34 41.4625 32.8625 41.4593 32.2377 40.8377C30.328 38.9344 28.4151 37.0407 26.5182 35.1246C24.9353 33.5257 24.916 31.1546 26.4413 29.6261C27.9697 28.0977 30.344 28.1105 31.9557 29.6614C32.321 30.0107 32.6639 30.3855 33.1381 30.8726C33.5514 30.4208 33.8847 30.0171 34.2628 29.655C35.8745 28.1041 38.2584 28.1041 39.7708 29.639C41.2928 31.177 41.264 33.5385 39.6747 35.1374L39.6779 35.1342Z" fill="#F9A543"/>
<path d="M32.9266 53.4528C32.1896 50.4441 30.376 48.4094 27.4185 47.4353C26.8898 47.2623 26.4829 47.0027 26.1625 46.5509C25.9029 46.1792 25.5889 45.8396 25.2845 45.4711C24.1887 46.4997 22.9518 47.1213 21.5163 47.2783C19.2574 47.525 17.3829 46.7272 15.8577 45.0802C15.4796 44.6669 15.502 44.135 15.8577 43.7601C16.2262 43.3691 16.7709 43.3499 17.2227 43.7216C17.4085 43.8754 17.5719 44.0612 17.7546 44.2215C18.5685 44.9552 19.5233 45.359 20.6192 45.3846C22.7788 45.4359 24.1598 44.1798 25.1147 42.4912C25.496 41.8151 25.3005 41.1358 24.8744 40.495C24.6148 40.104 24.4162 39.6619 24.2656 39.2165C24.1246 38.7967 24.0669 38.3513 23.9964 37.9091C23.7112 36.1821 22.7692 34.9581 21.1895 34.2019C20.2026 33.7308 19.2349 33.2246 18.2512 32.7471C17.7578 32.51 17.5175 32.1544 17.5303 31.6C17.5495 30.7541 17.5367 29.905 17.5367 28.9565C15.8577 29.3154 14.6625 30.187 13.855 31.6C13.5667 32.1095 13.2847 32.6254 12.9707 33.1188C8.88209 39.5177 8.00734 46.333 10.2759 53.5682C10.4137 54.0072 10.5964 54.1514 11.0674 54.1514C18.184 54.1353 25.3005 54.1385 32.4139 54.1385C32.6094 54.1385 32.8016 54.1193 33.0259 54.1097C32.9907 53.8502 32.9746 53.6483 32.9298 53.456L32.9266 53.4528ZM20.4525 37.2555C21.1927 37.2555 21.8015 37.8771 21.7823 38.6173C21.7631 39.3318 21.1639 39.9182 20.4461 39.9182C19.7284 39.9182 19.1292 39.3286 19.1164 38.6173C19.1004 37.8739 19.7092 37.2587 20.4493 37.2555H20.4525Z" fill="#F9A543"/>
<path d="M26.7905 12.9001C27.159 13.0091 27.3833 13.07 27.6076 13.1437C29.4212 13.7397 31.0425 14.6913 32.4748 15.9345C34.1698 17.4053 35.0189 19.3086 35.0446 21.5516C35.0638 23.221 33.7853 24.5026 32.1544 24.5123C30.5138 24.5219 29.2449 23.269 29.2097 21.5996C29.1905 20.648 29.2321 19.6963 29.1616 18.7479C29.0495 17.2098 28.5368 15.7904 27.7293 14.4766C27.4345 13.9992 27.1526 13.5154 26.7873 12.9001H26.7905Z" fill="#F9A543"/>
<path d="M12.0543 21.5901C12.0895 22.5033 11.7307 23.1377 11.0257 23.6055C10.292 22.6923 10.6092 22.0675 12.0543 21.5901Z" fill="#F9A543"/>
<path d="M38.4859 33.5419C36.7204 35.3458 34.8908 37.0921 33.0419 38.8993C31.3084 37.169 29.5621 35.4484 27.8447 33.7021C27.0596 32.9042 27.0949 31.7315 27.8671 30.9817C28.6137 30.2575 29.7608 30.2575 30.5523 31.0009C31.113 31.5296 31.6449 32.0871 32.1928 32.6286C32.9009 33.3304 33.3207 33.324 34.0384 32.6094C34.5992 32.0519 35.1439 31.4783 35.7239 30.9432C36.4929 30.2287 37.6272 30.2575 38.3609 30.9689C39.0851 31.6706 39.2069 32.8081 38.4859 33.5419Z" fill="#F9A543"/>
<path d="M73.9343 50.3769C73.8574 50.441 73.6844 50.4731 73.4152 50.4731C72.8641 49.9091 72.3258 49.185 71.8003 48.3006L71.6849 50.4923C71.5952 51.2613 71.3581 51.8637 70.9736 52.2995C70.6916 52.6455 70.2558 52.8185 69.6663 52.8185C69.1536 52.8185 68.5448 52.7032 67.8399 52.4725C67.763 52.4469 67.6925 52.4212 67.6284 52.3956C67.5002 52.3315 67.4361 52.1392 67.4361 51.8188C67.5771 51.6522 67.6732 51.5561 67.7245 51.5304C67.827 51.5176 68.2051 51.5817 68.8588 51.7227C69.5509 51.8765 70.0315 51.8316 70.3007 51.5881C70.6083 51.3318 70.7942 50.755 70.8582 49.8578C70.8711 49.6912 70.8775 49.5759 70.8775 49.5118C70.9415 48.9222 70.9544 48.3647 70.9159 47.8392C70.9031 47.5828 70.8711 47.3521 70.8198 47.1471C69.6022 48.4159 68.5128 49.2683 67.5515 49.704C67.5259 49.7169 67.4938 49.7297 67.4554 49.7425C67.199 49.7425 67.0324 49.6656 66.9555 49.5118C66.9555 49.2554 66.9619 49.1081 66.9747 49.0696C68.3077 48.2237 69.2305 47.5508 69.7432 47.0509C70.0892 46.7305 70.4097 46.3781 70.7044 45.9935C70.7173 45.7885 70.6339 45.3976 70.4545 44.8208C70.3776 44.5516 70.3071 44.3658 70.243 44.2633C69.6278 45.1604 68.7306 45.9551 67.5515 46.6472L67.2054 46.6857C67.0132 46.5959 66.917 46.3909 66.917 46.0704C66.9683 46.0192 67.2823 45.8013 67.8591 45.4168L68.0898 45.263C68.7947 44.7375 69.4035 44.0838 69.9162 43.302L69.4163 42.3023C69.3779 42.2382 69.333 42.1805 69.2818 42.1293C68.6537 42.8214 67.9873 43.302 67.2823 43.5712C67.0644 43.5712 66.8978 43.4878 66.7825 43.3212C66.7568 43.2187 66.744 43.1354 66.744 43.0713C66.744 42.9303 66.9427 42.7509 67.34 42.533C67.5707 42.392 67.7181 42.2895 67.7822 42.2254L68.282 41.8409C68.9357 41.2513 69.442 40.6553 69.8008 40.0529L67.167 40.0145C66.9491 40.0016 66.8658 39.8414 66.917 39.5338C66.9299 39.4185 66.9555 39.3352 66.9939 39.2839L67.2439 39.1493L73.4152 39.1686C73.6331 39.2839 73.7036 39.4697 73.6267 39.7261L73.5113 39.9376L73.3768 40.0145L70.8582 40.0529L69.9547 41.4179C70.5955 42.4433 71.0889 43.5968 71.435 44.8785C71.7554 46.2243 72.3642 47.5508 73.2614 48.8581L74.0304 49.9347C74.0945 50.0245 74.0817 50.1462 73.992 50.3L73.9343 50.3769ZM71.4927 44.1864C71.3645 44.1223 71.3004 43.9364 71.3004 43.6288C72.0438 42.7188 72.5629 42.0524 72.8577 41.6294C72.9858 41.4371 73.1717 41.4115 73.4152 41.5525C73.5946 41.6422 73.6844 41.7704 73.6844 41.937C73.6844 42.219 73.2614 42.8085 72.4155 43.7057C72.2232 43.9108 72.0758 44.0518 71.9733 44.1287C71.9092 44.1671 71.749 44.1864 71.4927 44.1864ZM81.6052 44.0902L81.3745 44.1864H78.2023L76.3759 45.4745L80.394 45.5514C80.6632 45.5642 80.8811 45.7308 81.0477 46.0512C81.1118 46.1666 81.1438 46.2691 81.1438 46.3588V51.6266C81.1438 51.9085 80.9644 52.1521 80.6055 52.3571L80.2787 52.4725L80.221 52.4917L75.0109 52.4725C74.793 52.4725 74.5815 52.3315 74.3765 52.0495C74.2868 51.9342 74.2419 51.838 74.2419 51.7611L74.2227 46.6857C74.1842 46.6728 73.8766 46.769 73.2999 46.974L72.6654 47.1471H72.5308C72.313 46.9804 72.2425 46.7818 72.3194 46.5511C72.3322 46.4998 72.3578 46.4485 72.3963 46.3973C73.8702 45.9359 75.3377 45.2117 76.7989 44.2248L73.0307 44.1671C72.7487 44.0518 72.6718 43.8595 72.8 43.5904C72.8513 43.4878 72.9282 43.4045 73.0307 43.3404L76.4528 43.3212L76.4913 41.2449L73.5113 41.2064C73.2934 41.0783 73.2037 40.9052 73.2422 40.6874C73.2678 40.5976 73.3063 40.5143 73.3575 40.4374L73.5882 40.3413H76.4528L76.5105 38.6495C76.5233 38.611 76.6258 38.5405 76.8181 38.438C77.0744 38.438 77.2411 38.4893 77.318 38.5918C77.3436 38.6174 77.3628 38.6495 77.3756 38.6879L77.4141 40.3221L80.1441 40.3605C80.2722 40.4502 80.3363 40.6233 80.3363 40.8796C80.3876 40.854 80.5414 40.6874 80.7977 40.3797C81.0028 40.1619 81.2271 40.0529 81.4706 40.0529C81.6501 40.117 81.7398 40.2324 81.7398 40.399C81.7398 40.6681 81.0733 41.482 79.7403 42.8406L79.2789 43.302L81.5091 43.3404C81.7142 43.3404 81.7782 43.5135 81.7013 43.8595C81.6757 43.9621 81.6437 44.039 81.6052 44.0902ZM80.2402 48.4928V46.7818C80.1633 46.6152 80.0672 46.4998 79.9518 46.4357L75.4723 46.3973C75.3442 46.4614 75.2544 46.5575 75.2032 46.6857L75.1839 48.4928H80.2402ZM80.2402 49.4157H75.1839V50.9921C75.1839 51.3126 75.2737 51.5112 75.4531 51.5881H79.8749C80.0415 51.524 80.1569 51.4151 80.221 51.2613L80.2402 49.4157ZM80.048 41.2064L77.4333 41.2449V43.3212H77.9524C78.6573 42.7445 79.3558 42.0395 80.048 41.2064Z" fill="white"/>
<path d="M104.041 52.4917C104.041 52.6583 103.996 52.7929 103.907 52.8954C103.83 53.0107 103.65 53.062 103.368 53.0492H103.214C102.061 52.9338 100.555 52.4212 98.6965 51.5112L97.6199 50.9344C95.8896 51.8444 94.2234 52.5045 92.6213 52.9146L91.8523 53.0876C91.6344 53.1005 91.4934 52.9851 91.4294 52.7416C91.3653 52.4981 91.4294 52.3379 91.6216 52.261C91.6985 52.2353 92.1407 52.12 92.9482 51.9149C93.102 51.8764 93.2301 51.838 93.3327 51.7995C94.5375 51.4407 95.6974 50.9793 96.8125 50.4153C95.095 49.108 93.8133 47.3393 92.9674 45.1091H91.7177C91.6536 47.711 91.2243 49.8642 90.4296 51.5688L89.9875 52.3955V52.4148C89.8337 52.6198 89.6414 52.6647 89.4107 52.5493C89.2056 52.434 89.1287 52.2545 89.18 52.011C90.2053 50.3192 90.7308 48.4928 90.7565 46.5318L90.8141 40.8026C90.8141 40.6104 90.9679 40.3989 91.2755 40.1682C91.4165 40.0657 91.5319 40.0144 91.6216 40.0144L96.5241 39.9952C96.5497 39.9439 96.5561 39.6876 96.5433 39.2262C96.5305 38.8032 96.6586 38.5853 96.9278 38.5725C97.0688 38.5725 97.2098 38.6174 97.3508 38.7071C97.4533 38.9634 97.4917 39.38 97.4661 39.9567L102.945 40.0144C103.189 40.0144 103.426 40.1874 103.657 40.5335C103.862 40.8411 103.849 41.3281 103.618 41.9946C103.605 42.0203 103.593 42.0651 103.58 42.1292C103.323 42.8598 103.009 43.3596 102.638 43.6288C102.228 43.6288 102.016 43.4942 102.003 43.225C102.003 43.161 102.016 43.0841 102.042 42.9943L102.657 41.9369C102.772 41.6806 102.83 41.4243 102.83 41.1679C102.702 40.9757 102.561 40.8796 102.407 40.8796H97.5046L97.4661 44.1863L101.234 44.244C101.503 44.244 101.747 44.3657 101.965 44.6093C102.016 44.6605 102.048 44.7118 102.061 44.7631C102.215 45.0835 102.138 45.6923 101.83 46.5895C101.33 47.8071 100.196 49.0824 98.4274 50.4153C99.4015 50.9921 100.632 51.4599 102.119 51.8188L103.637 52.1264C103.676 52.1392 103.708 52.152 103.734 52.1648C103.875 52.2161 103.977 52.325 104.041 52.4917ZM96.5241 44.1863V40.8796H92.1791C92.0253 40.8796 91.8779 40.9821 91.737 41.1872L91.7177 44.1863H96.5241ZM100.965 45.1476L93.9287 45.1091C94.3901 46.3652 95.1527 47.5572 96.2165 48.685C96.6907 49.1977 97.1585 49.6014 97.6199 49.8962C99.0682 48.9222 100.138 47.775 100.831 46.4549C101.01 46.096 101.113 45.8653 101.138 45.7628C101.151 45.5962 101.138 45.4552 101.1 45.3398C101.074 45.2373 101.029 45.1732 100.965 45.1476Z" fill="white"/>
<path d="M119.844 41.5334C119.844 41.7769 119.812 41.9499 119.748 42.0525L119.518 42.1486H116.422L116.403 43.1483L118.941 43.2252C119.107 43.2252 119.293 43.379 119.498 43.6866L119.633 43.975V47.1472C119.633 47.442 119.466 47.6983 119.133 47.9162C118.979 48.0187 118.832 48.07 118.691 48.07H116.422L116.403 49.0697L119.268 49.1274C119.537 49.2299 119.588 49.4286 119.421 49.7234C119.345 49.8515 119.255 49.9412 119.152 49.9925H116.422L116.403 51.2422L118.864 50.9538C118.966 50.9538 119.05 50.9602 119.114 50.973C119.229 50.9858 119.345 51.0755 119.46 51.2422C119.46 51.4985 119.415 51.6715 119.325 51.7612C119.248 51.851 116.897 52.1201 112.27 52.5687C112.193 52.5687 112.135 52.5751 112.097 52.5879C111.853 52.6008 111.718 52.4726 111.693 52.2034C111.667 51.9599 111.738 51.8125 111.904 51.7612C112.289 51.6715 113.436 51.5434 115.346 51.3767C115.384 51.3639 115.416 51.3575 115.442 51.3575L115.48 49.9925L112.02 49.9541C111.789 49.9541 111.719 49.781 111.808 49.435C111.834 49.3324 111.866 49.2555 111.904 49.2043L112.116 49.1081H115.442L115.48 48.0892L113.019 48.0508C112.802 48.0379 112.596 47.897 112.404 47.6278C112.314 47.5124 112.27 47.4099 112.27 47.3202V44.0134C112.27 43.7571 112.443 43.52 112.789 43.3021C112.93 43.2124 113.058 43.1675 113.173 43.1675H115.442L115.48 42.1678L111.847 42.1101C111.783 42.1101 111.693 42.0204 111.578 41.841C111.578 41.6231 111.61 41.4757 111.674 41.3988L111.924 41.2642H115.442L115.48 40.3414L113.327 40.3991C113.045 40.3863 112.782 40.3542 112.539 40.3029C112.398 40.1876 112.359 40.0274 112.423 39.8223C112.462 39.6685 112.552 39.5852 112.693 39.5724C112.769 39.5596 113.513 39.5339 114.923 39.4955C115.153 39.4827 115.358 39.4698 115.538 39.457C116.256 39.4058 117.377 39.2712 118.902 39.0533C119.018 39.0405 119.133 39.0533 119.248 39.0917C119.351 39.1302 119.421 39.1879 119.46 39.2648V39.7454C119.05 39.9761 118.345 40.1171 117.345 40.1684C116.935 40.194 116.627 40.2196 116.422 40.2453L116.403 41.2258L119.633 41.3027C119.697 41.3027 119.768 41.3796 119.844 41.5334ZM115.442 45.2246V44.0711H113.5C113.244 44.0711 113.135 44.4556 113.173 45.2246H115.442ZM115.442 47.1664V46.1474H113.173C113.199 46.5704 113.218 46.8075 113.231 46.8588C113.282 46.987 113.359 47.0831 113.462 47.1472L115.442 47.1664ZM118.71 45.2246C118.71 44.7376 118.697 44.4556 118.672 44.3787C118.62 44.2121 118.531 44.1224 118.403 44.1096L116.422 44.0711V45.2246H118.71ZM118.71 46.1474H116.422V47.1664L118.345 47.1472L118.576 46.9934C118.665 46.8524 118.71 46.5704 118.71 46.1474ZM121.325 51.6074C121.466 51.5946 121.882 51.6779 122.574 51.8574C123.254 52.0368 123.728 52.0176 123.997 51.7997C124.574 51.3255 124.888 50.2873 124.939 48.6852C124.939 48.7236 124.946 48.5891 124.958 48.2815L125.131 44.2249L125.112 43.1483C125.087 42.8535 125.029 42.5843 124.939 42.3408C124.67 42.1358 124.1 42.046 123.228 42.0717L122.882 42.0909L122.747 44.0327V44.0519C122.337 47.5765 121.543 50.3001 120.363 52.2227C120.017 52.7481 119.665 53.0173 119.306 53.0301C119.152 52.9404 119.05 52.8379 118.998 52.7225C118.998 52.5431 119.133 52.2867 119.402 51.9535C119.505 51.8381 119.575 51.7484 119.614 51.6843C120.408 50.236 120.992 48.7365 121.363 47.1856C121.453 46.8139 121.517 46.4871 121.555 46.2051C121.709 44.7953 121.818 43.7379 121.882 43.0329C121.882 43.0073 121.902 42.6997 121.94 42.1101C121.85 42.0717 121.549 42.0717 121.036 42.1101L120.594 42.0909C120.415 42.0396 120.287 41.9243 120.21 41.7448C120.21 41.527 120.274 41.3667 120.402 41.2642C120.594 41.2129 121.1 41.1937 121.921 41.2065L121.978 41.1681L121.998 38.8995C122.113 38.6816 122.28 38.5791 122.498 38.5919C122.523 38.6047 122.549 38.6111 122.574 38.6111C122.767 38.688 122.863 38.7713 122.863 38.861V41.1873L124.728 41.2065C125.33 41.2834 125.727 41.5013 125.92 41.8602C126.061 42.1678 126.105 42.9432 126.054 44.1865V44.571C126.054 45.0708 126.035 45.5579 125.997 46.0321C125.92 48.1341 125.759 49.7618 125.516 50.9153C125.272 51.9791 124.779 52.62 124.036 52.8379C123.613 52.9532 123.036 52.9532 122.305 52.8379C121.472 52.7097 121.056 52.4726 121.056 52.1265C121.056 51.8702 121.145 51.6972 121.325 51.6074Z" fill="white"/>
<path d="M137.839 47.9161L137.782 52.8378C137.782 52.9275 137.705 53.0109 137.551 53.0878C137.128 53.0878 136.917 52.9724 136.917 52.7417V48.3776L134.667 48.9928C134.488 49.044 134.347 49.0697 134.244 49.0697C134.09 48.9928 134.013 48.8069 134.013 48.5121C134.09 48.3711 134.206 48.2814 134.36 48.243C134.706 48.1533 135.545 47.8713 136.878 47.3971L136.917 42.6292L135.455 42.6099C135.186 43.8404 135 44.5838 134.898 44.8401C134.808 45.1092 134.706 45.34 134.59 45.5322C134.513 45.6604 134.353 45.718 134.11 45.7052L134.013 45.686C133.962 45.686 133.885 45.6155 133.783 45.4745C133.783 45.2823 133.885 44.9234 134.09 44.3979C134.116 44.3338 134.135 44.2761 134.148 44.2249C134.481 43.1995 134.674 41.9563 134.725 40.4952L134.763 39.3416C134.776 39.2391 134.859 39.143 135.013 39.0533C135.167 39.0533 135.327 39.0789 135.494 39.1302L135.628 39.3224C135.692 39.7069 135.667 40.3734 135.552 41.3219L135.513 41.7064L136.878 41.7256L136.936 38.7649C136.936 38.7136 137.019 38.6367 137.186 38.5342C137.429 38.5342 137.596 38.5662 137.686 38.6303L137.782 38.7841L137.82 41.7064L139.473 41.7448C139.525 41.7448 139.602 41.8345 139.704 42.014C139.704 42.219 139.672 42.3728 139.608 42.4754L139.377 42.6099H137.839L137.82 46.9164C138.076 46.8652 138.519 46.6537 139.147 46.282C139.236 46.2179 139.313 46.173 139.377 46.1474C139.621 46.1474 139.781 46.2307 139.858 46.3973C139.896 46.4742 139.909 46.5768 139.896 46.7049C139.884 46.7434 139.871 46.7754 139.858 46.8011C139.666 47.019 139.051 47.365 138.012 47.8392C137.948 47.8777 137.891 47.9033 137.839 47.9161ZM142.896 51.7035C143.062 51.7035 143.479 51.7804 144.145 51.9342C144.427 51.9983 144.671 52.0304 144.876 52.0304C146.234 52.0304 146.984 51.146 147.125 49.3773C147.228 48.4929 147.292 47.8264 147.317 47.3778L147.471 42.0332C147.471 41.7256 147.317 41.4692 147.01 41.2642C146.92 41.2129 146.67 41.1873 146.26 41.1873C146.081 46.1474 144.44 49.813 141.338 52.1842C140.8 52.5687 140.358 52.7609 140.012 52.7609C139.858 52.6968 139.755 52.5623 139.704 52.3572C139.755 52.1521 139.98 51.9342 140.377 51.7035C140.544 51.6138 140.665 51.5369 140.742 51.4728C143.588 49.1145 145.107 46.0128 145.299 42.1678C145.312 41.8473 145.318 41.5269 145.318 41.2065L143.991 41.1873H143.972C143.665 44.9554 142.242 47.8841 139.704 49.9733C139.627 50.0245 139.557 50.0822 139.493 50.1463H139.07C138.942 50.0437 138.858 49.9156 138.82 49.7618L138.897 49.5118C141.422 47.3586 142.799 44.5902 143.03 41.2065L141.569 41.1873C141.274 42.4177 140.877 43.4366 140.377 44.2441C140.287 44.3851 140.198 44.5133 140.108 44.6286C139.877 44.9106 139.634 45.0195 139.377 44.9554C139.224 44.917 139.115 44.8016 139.051 44.6094L139.07 44.3787C140.287 42.8535 140.928 41.0271 140.992 38.8995C141.044 38.7969 141.185 38.7072 141.415 38.6303C141.595 38.6559 141.748 38.7521 141.877 38.9187C141.877 39.2263 141.838 39.6813 141.761 40.2837L147.471 40.3414C147.753 40.3414 148.003 40.5336 148.221 40.9181L148.336 41.1488C148.477 41.5974 148.509 42.6997 148.432 44.4556L148.202 48.6852C148.112 50.1847 147.849 51.2421 147.414 51.8573C147.067 52.3572 146.587 52.6968 145.972 52.8763C145.549 52.9916 144.94 53.0045 144.145 52.9147C143.146 52.7994 142.646 52.543 142.646 52.1457C142.646 51.9535 142.729 51.8061 142.896 51.7035Z" fill="white"/>
<path d="M165.251 46.6473L165.213 47.4548L168.981 47.4932C169.173 47.506 169.366 47.6598 169.558 47.9546C169.635 48.0572 169.673 48.1405 169.673 48.2045V51.8958C169.673 52.1265 169.545 52.3316 169.289 52.511L169.173 52.5879C168.956 52.652 168.84 52.684 168.827 52.684L157.811 52.6648C157.593 52.6648 157.395 52.5046 157.215 52.1842C157.151 52.056 157.119 51.9471 157.119 51.8574L157.158 48.1469C157.158 48.0059 157.305 47.8264 157.6 47.6086C157.702 47.5317 157.786 47.4932 157.85 47.4932H161.387L161.426 46.6857L156.062 46.6088C155.946 46.6088 155.895 46.4743 155.908 46.2051C155.921 46.1667 155.972 46.1218 156.062 46.0705C156.087 46.0449 156.107 46.0257 156.119 46.0129L170.788 46.0513C170.993 46.141 171.038 46.2884 170.923 46.4935C170.884 46.5704 170.833 46.6088 170.769 46.6088L165.251 46.6473ZM170.923 45.2631C170.897 45.4553 170.82 45.5771 170.692 45.6283C170.282 45.8078 169.353 45.6604 167.905 45.1862L166.962 44.8209L166.905 44.7824C165.674 45.3336 164.386 45.6091 163.041 45.6091C162.874 45.545 162.791 45.4105 162.791 45.2054L157.273 45.1093C157.055 45.1093 156.856 44.9683 156.677 44.6863C156.613 44.5966 156.581 44.5133 156.581 44.4364L156.6 39.6493C156.779 39.2648 157.023 39.0725 157.331 39.0725H162.906C163.098 39.0725 163.175 39.1879 163.137 39.4186L163.041 39.63L162.983 39.6685L159.292 39.6877L159.272 39.7262C159.426 39.7903 159.465 39.9505 159.388 40.2068C159.362 40.2965 159.349 40.3606 159.349 40.3991L162.579 40.4375C162.682 40.4375 162.733 40.5785 162.733 40.8605C162.605 40.9886 162.528 41.0527 162.502 41.0527H161.041L161.003 41.8602C162.041 41.8602 162.598 41.8666 162.675 41.8794C162.855 41.8922 163.021 41.9179 163.175 41.9563C163.201 42.0204 163.214 42.1486 163.214 42.3408L163.079 42.4754L161.368 42.5138L162.752 43.725C162.778 43.7507 162.791 43.8917 162.791 44.148C162.637 44.3146 162.509 44.4043 162.406 44.4172L162.195 44.3595L160.695 42.9368C160.413 43.2957 159.984 43.6674 159.407 44.0519C158.664 44.5389 158.177 44.603 157.946 44.2441C157.946 43.9365 158.016 43.7507 158.157 43.6866C158.837 43.4046 159.26 43.206 159.426 43.0906C159.618 42.9368 159.804 42.7445 159.984 42.5138L157.792 42.4754C157.625 42.3857 157.568 42.2575 157.619 42.0909C157.645 42.014 157.689 41.9499 157.754 41.8986L157.946 41.841C157.754 41.7641 157.638 41.6679 157.6 41.5526C157.6 41.3475 157.754 41.0848 158.061 40.7643C158.215 40.6234 158.318 40.508 158.369 40.4183L158.773 39.7262L157.946 39.6877L157.657 39.7646L157.523 39.9184L157.484 39.9761V44.148C157.484 44.2762 157.561 44.3851 157.715 44.4748C157.754 44.5005 157.786 44.5133 157.811 44.5133L162.983 44.571C163.073 44.635 163.117 44.7055 163.117 44.7824C164.04 44.7824 164.976 44.6286 165.924 44.321L164.732 43.5328C164.502 43.3662 164.309 43.1931 164.156 43.0137C164.104 42.8855 164.098 42.7766 164.136 42.6869C164.175 42.6228 164.226 42.5651 164.29 42.5138C163.97 42.4369 163.867 42.2767 163.983 42.0332C164.034 41.9179 164.092 41.8602 164.156 41.8602L169.097 41.8986C169.25 41.8986 169.398 42.0076 169.539 42.2255C169.744 42.6997 169.391 43.2572 168.481 43.8981L167.885 44.321C168.642 44.5774 169.571 44.7696 170.673 44.8978C170.801 44.9619 170.884 45.0836 170.923 45.2631ZM168.77 50.6462V48.5121C168.667 48.2943 168.565 48.1725 168.462 48.1469L165.251 48.1276L165.232 48.9543C165.258 49.1722 165.341 49.3196 165.482 49.3965L166.828 49.4157C167.02 49.4029 167.155 49.3773 167.232 49.3388C167.347 49.2876 167.424 49.1145 167.462 48.8198C167.501 48.5506 167.642 48.4096 167.885 48.3968C168.167 48.3968 168.263 48.666 168.174 49.2043C168.161 49.2555 168.154 49.3004 168.154 49.3388C168.039 49.9412 167.475 50.2296 166.463 50.204L165.482 50.1655C165.213 50.1655 165.014 50.1399 164.886 50.0886C164.476 49.9476 164.29 49.4221 164.329 48.5121C164.341 48.2943 164.348 48.1661 164.348 48.1276H162.252C162.163 49.012 161.483 49.6336 160.214 49.9925C159.689 50.1335 159.163 50.204 158.638 50.204C158.433 50.1143 158.343 49.9412 158.369 49.6849C158.394 49.5311 158.478 49.4286 158.619 49.3773C158.708 49.3517 158.907 49.326 159.215 49.3004C160.15 49.1338 160.785 48.8454 161.118 48.4352C161.208 48.3455 161.278 48.243 161.329 48.1276H158.369C158.279 48.1276 158.189 48.211 158.1 48.3776L158.061 50.6462H168.77ZM168.77 51.319H158.061L158.119 51.8189C158.17 51.9471 158.241 52.0112 158.33 52.0112L168.154 52.0304C168.513 52.0432 168.712 51.8894 168.75 51.569C168.763 51.5049 168.77 51.4216 168.77 51.319ZM160.118 41.841V41.0719H158.907C158.676 41.4436 158.426 41.7 158.157 41.841H160.118ZM164.348 47.4548V46.6857H162.31V47.4548H164.348ZM168.308 41.4949C167.924 41.3155 167.732 41.0143 167.732 40.5913V39.8415L167.52 39.6493L165.559 39.63C165.392 39.6172 165.29 39.8223 165.251 40.2453L165.213 40.4375C165.11 40.7451 164.803 41.0719 164.29 41.418C163.662 41.841 163.271 41.8986 163.117 41.591C163.105 41.5654 163.098 41.4116 163.098 41.1296C163.162 41.0527 163.393 40.9053 163.79 40.6874C163.944 40.5977 164.066 40.508 164.156 40.4183C164.271 40.3029 164.373 40.0338 164.463 39.6108C164.617 39.2263 164.822 39.0212 165.078 38.9956C166.386 38.9956 167.366 39.002 168.02 39.0148C168.366 39.0148 168.565 39.3417 168.616 39.9953L168.693 40.7836C168.693 40.7836 168.712 40.8092 168.712 40.822C168.789 40.8605 169.064 40.8797 169.539 40.8797C169.654 40.79 169.725 40.5849 169.75 40.2645C169.763 40.0081 169.846 39.8479 170 39.7838C170.295 39.7838 170.474 39.8479 170.538 39.9761C170.628 40.1555 170.635 40.4247 170.558 40.7836C170.532 40.9758 170.487 41.1168 170.423 41.2065C170.244 41.4757 169.673 41.5782 168.712 41.5141L168.308 41.4949ZM168.212 42.5138H164.79C165.264 42.9368 165.969 43.3982 166.905 43.8981L167.847 43.379C168.026 43.2508 168.167 43.1162 168.27 42.9753L168.308 42.6484C168.295 42.5972 168.263 42.5523 168.212 42.5138Z" fill="white"/>
<path d="M179.401 49.4155L179.324 52.7607C179.324 52.8761 179.248 52.9658 179.094 53.0299C178.914 53.0555 178.767 53.0235 178.652 52.9338C178.587 52.8953 178.53 52.8377 178.479 52.7607V39.9182C178.479 39.5978 178.786 39.3286 179.401 39.1108L181.689 39.1492C181.869 39.1492 182.08 39.2902 182.324 39.5722C182.452 39.726 182.509 39.8477 182.497 39.9374C182.484 40.3732 182.221 41.3922 181.708 42.9943C181.619 43.2506 181.555 43.4557 181.516 43.6095C181.439 43.8402 181.644 44.3465 182.131 45.1283C182.272 45.359 182.368 45.5192 182.42 45.6089C182.881 46.5317 183.029 47.3969 182.862 48.2043C182.798 48.5504 182.657 48.8452 182.439 49.0887C182.067 49.5501 181.529 49.7808 180.824 49.7808C180.401 49.7808 179.927 49.6591 179.401 49.4155ZM181.555 40.2643C181.362 40.072 180.862 39.9951 180.055 40.0336H179.824C179.555 40.1233 179.421 40.213 179.421 40.3027V48.3197C179.933 48.6401 180.407 48.8003 180.843 48.8003C181.869 48.8003 182.17 48.0377 181.747 46.5125C181.721 46.4228 181.689 46.3267 181.651 46.2241C181.638 46.1472 181.414 45.7307 180.978 44.9745C180.632 44.3465 180.491 43.9171 180.555 43.6864L181.343 41.2448C181.484 40.7705 181.555 40.4437 181.555 40.2643ZM192.244 52.8953C191.167 53.1132 190.289 53.1324 189.61 52.953L189.206 52.78C189.181 52.7672 189.161 52.7543 189.149 52.7415C188.918 52.5108 188.79 52.2801 188.764 52.0494L188.726 46.5702L186.438 46.551C186.438 48.2684 186.073 49.6911 185.342 50.819C184.791 51.6649 184.047 52.325 183.112 52.7992C182.753 52.9786 182.426 53.0684 182.131 53.0684C181.939 52.9658 181.843 52.8376 181.843 52.6838C181.843 52.466 182.08 52.2545 182.554 52.0494C182.785 51.9469 182.932 51.8764 182.996 51.8379C184.509 50.851 185.336 49.5181 185.477 47.8391C185.502 47.4417 185.502 47.0188 185.477 46.5702L183.266 46.5317C183.15 46.5317 183.067 46.442 183.016 46.2626C183.003 46.2369 182.996 46.2113 182.996 46.1857C182.984 46.0447 183.016 45.9229 183.093 45.8204C183.157 45.7179 183.24 45.6666 183.343 45.6666L192.513 45.705C192.744 45.8076 192.814 45.9934 192.724 46.2626L192.59 46.4548C192.564 46.4933 192.532 46.5189 192.494 46.5317L189.668 46.551V51.8187C189.809 52.1007 190.212 52.216 190.879 52.1648C191.533 52.1263 191.923 51.9661 192.052 51.6841L192.148 49.9154C192.173 49.736 192.205 49.5757 192.244 49.4348C192.282 49.3835 192.468 49.3579 192.801 49.3579C192.955 49.5373 193.019 49.9667 192.994 50.646C192.994 51.6072 192.84 52.2737 192.532 52.6454C192.455 52.7351 192.359 52.8184 192.244 52.8953ZM191.475 43.0904L191.706 41.6293C191.718 41.0781 191.449 40.8026 190.898 40.8026L184.727 40.8218C184.547 40.8474 184.381 40.9628 184.227 41.1679C184.188 41.2191 184.163 41.264 184.15 41.3024C184.099 41.4691 184.086 41.8984 184.112 42.5905L184.073 43.1481C184.047 43.2762 183.913 43.366 183.669 43.4172C183.631 43.43 183.516 43.3852 183.323 43.2827L183.208 43.0135V41.6677C183.208 40.668 183.535 40.1041 184.188 39.9759C184.522 39.9246 185.4 39.9054 186.822 39.9182C187.015 39.931 187.175 39.931 187.303 39.9182L187.341 38.8801C187.38 38.6493 187.508 38.5212 187.726 38.4955C187.803 38.4827 187.899 38.502 188.014 38.5532C188.053 38.5789 188.085 38.5981 188.11 38.6109C188.226 38.8929 188.271 39.3286 188.245 39.9182L191.706 39.9374C191.962 39.9503 192.218 40.1489 192.475 40.5334C192.551 40.6488 192.603 40.7513 192.628 40.841C192.731 41.2384 192.699 41.7703 192.532 42.4367C192.455 42.7443 192.366 42.9943 192.263 43.1865C192.225 43.2762 192.129 43.3211 191.975 43.3211C191.744 43.3211 191.577 43.2442 191.475 43.0904ZM190.706 43.4749H184.977C184.759 43.3339 184.682 43.1481 184.746 42.9174C184.759 42.8661 184.784 42.802 184.823 42.7251L185.034 42.6098L190.725 42.629C190.956 42.7187 191.033 42.8981 190.956 43.1673C190.904 43.3083 190.821 43.4108 190.706 43.4749Z" fill="white"/>
<path d="M74.4438 26.2842C74.4438 26.8289 74.3636 27.3736 74.2034 27.9119C74.0432 28.4502 73.7869 28.9405 73.4312 29.3795C73.0755 29.8184 72.6045 30.1773 72.0214 30.4497C71.4382 30.722 70.714 30.8598 69.8489 30.8598C68.7114 30.8598 67.7629 30.5714 67.0035 29.9947C66.2441 29.4179 65.7603 28.5528 65.5488 27.4025L67.4585 27.0147C67.5803 27.6524 67.8398 28.1554 68.2436 28.5271C68.6441 28.8988 69.1888 29.0847 69.8713 29.0847C70.416 29.0847 70.8646 28.9853 71.2139 28.7899C71.5632 28.5944 71.8323 28.3349 72.0214 28.0177C72.2104 27.7004 72.3418 27.332 72.4187 26.9154C72.4956 26.4989 72.5308 26.0695 72.5308 25.6305V14.342H74.4405V26.2842H74.4438Z" fill="white"/>
<path d="M78.449 14.342H83.2265C83.9699 14.342 84.678 14.4125 85.3541 14.5567C86.0302 14.7009 86.6294 14.9444 87.1517 15.2841C87.674 15.6269 88.0905 16.0819 88.4046 16.6491C88.7154 17.2194 88.8724 17.918 88.8724 18.7543C88.8724 19.6354 88.7058 20.3628 88.3725 20.9395C88.0393 21.5163 87.6099 21.9713 87.0876 22.3045C86.5653 22.6378 85.9918 22.8749 85.3702 23.0095C84.7485 23.1472 84.1558 23.2145 83.595 23.2145H80.3652V30.4497H78.4554V14.342H78.449ZM80.3588 21.4394H83.5886C84.5435 21.4394 85.3221 21.2247 85.9213 20.7921C86.5205 20.3596 86.8185 19.6899 86.8185 18.7799C86.8185 17.8699 86.5173 17.2002 85.9213 16.7676C85.3221 16.3351 84.5435 16.1204 83.5886 16.1204H80.3588V21.4426V21.4394Z" fill="white"/>
<path d="M98.2639 14.342H103.041C103.785 14.342 104.493 14.4125 105.169 14.5567C105.845 14.7009 106.444 14.9444 106.967 15.2841C107.489 15.6269 107.905 16.0819 108.219 16.6491C108.53 17.2194 108.687 17.918 108.687 18.7543C108.687 19.6354 108.521 20.3628 108.187 20.9395C107.854 21.5163 107.425 21.9713 106.903 22.3045C106.38 22.6378 105.807 22.8749 105.185 23.0095C104.563 23.1472 103.971 23.2145 103.41 23.2145H100.18V30.4497H98.2704V14.342H98.2639ZM100.174 21.4394H103.404C104.358 21.4394 105.137 21.2247 105.736 20.7921C106.335 20.3596 106.633 19.6899 106.633 18.7799C106.633 17.8699 106.332 17.2002 105.736 16.7676C105.137 16.3351 104.358 16.1204 103.404 16.1204H100.174V21.4426V21.4394Z" fill="white"/>
<path d="M120.943 28.5145C120.306 29.3348 119.607 29.9051 118.851 30.232C118.092 30.5588 117.214 30.7222 116.211 30.7222C115.378 30.7222 114.625 30.5748 113.958 30.28C113.292 29.9852 112.725 29.5847 112.263 29.0848C111.802 28.585 111.443 27.9922 111.193 27.3097C110.943 26.6272 110.818 25.8998 110.818 25.1244C110.818 24.3041 110.956 23.5511 111.228 22.859C111.501 22.1701 111.879 21.5773 112.366 21.0839C112.85 20.5904 113.426 20.2091 114.096 19.9336C114.762 19.6612 115.49 19.5234 116.281 19.5234C117.025 19.5234 117.707 19.6484 118.329 19.8983C118.95 20.1483 119.486 20.5135 119.934 20.991C120.383 21.4684 120.726 22.0516 120.969 22.7437C121.213 23.4326 121.334 24.2176 121.334 25.0988V25.6659H112.734C112.763 26.1209 112.875 26.5567 113.064 26.9733C113.253 27.3898 113.5 27.7551 113.804 28.0659C114.109 28.3767 114.464 28.6234 114.875 28.8061C115.285 28.9887 115.73 29.0784 116.217 29.0784C116.989 29.0784 117.643 28.9407 118.175 28.6683C118.707 28.3959 119.184 27.9922 119.607 27.4635L120.95 28.5113L120.943 28.5145ZM119.418 24.1696C119.386 23.2596 119.091 22.5322 118.531 21.9843C117.97 21.4396 117.194 21.164 116.211 21.164C115.227 21.164 114.429 21.4364 113.82 21.9843C113.215 22.529 112.85 23.2596 112.728 24.1696H119.415H119.418Z" fill="white"/>
<path d="M129.909 21.3018H126.769V26.624C126.769 26.9732 126.775 27.2937 126.791 27.5917C126.807 27.8864 126.868 28.146 126.974 28.3639C127.08 28.585 127.24 28.758 127.451 28.8862C127.663 29.0143 127.967 29.0784 128.361 29.0784C128.618 29.0784 128.883 29.0496 129.156 28.9887C129.428 28.9278 129.688 28.8381 129.928 28.7163L129.995 30.3313C129.691 30.4691 129.355 30.5652 128.983 30.6261C128.611 30.6869 128.259 30.7158 127.925 30.7158C127.288 30.7158 126.782 30.6325 126.4 30.4658C126.022 30.2992 125.724 30.0653 125.513 29.7609C125.301 29.4565 125.16 29.0816 125.093 28.6362C125.026 28.1876 124.99 27.691 124.99 27.1463V21.2986H122.671V19.7958H124.99V16.771H126.765V19.7958H129.906V21.2986L129.909 21.3018Z" fill="white"/>
<path d="M150.019 17.6617C149.532 17.008 148.936 16.521 148.221 16.1942C147.506 15.8673 146.766 15.7039 145.991 15.7039C145.097 15.7039 144.273 15.8866 143.524 16.2486C142.774 16.6139 142.123 17.101 141.579 17.7162C141.034 18.3314 140.608 19.0427 140.303 19.8534C139.999 20.664 139.848 21.51 139.848 22.3911C139.848 23.3332 139.999 24.2079 140.303 25.0186C140.608 25.8293 141.027 26.5342 141.566 27.1334C142.104 27.7326 142.748 28.2068 143.501 28.5561C144.251 28.9053 145.081 29.0783 145.991 29.0783C146.978 29.0783 147.856 28.8861 148.631 28.4984C149.407 28.1107 150.079 27.5531 150.656 26.8258L152.088 28.0306C151.361 29.0014 150.486 29.7128 149.461 30.1678C148.436 30.6228 147.282 30.8503 145.991 30.8503C144.837 30.8503 143.761 30.6388 142.761 30.2126C141.761 29.7897 140.893 29.2001 140.156 28.4503C139.419 27.7005 138.845 26.8097 138.426 25.778C138.009 24.7462 137.801 23.6151 137.801 22.3879C137.801 21.1607 138.003 20.0969 138.403 19.0651C138.804 18.0334 139.371 17.1394 140.098 16.38C140.826 15.6206 141.691 15.0214 142.69 14.5824C143.69 14.1435 144.792 13.9224 145.988 13.9224C147.08 13.9224 148.131 14.121 149.137 14.5151C150.147 14.9093 150.993 15.5533 151.675 16.4505L150.015 17.6553L150.019 17.6617Z" fill="white"/>
<path d="M154.591 13.2495H156.366V30.4498H154.591V13.2495Z" fill="white"/>
<path d="M159.663 15.6366C159.663 15.2873 159.788 14.9861 160.038 14.7266C160.288 14.4702 160.596 14.3389 160.961 14.3389C161.326 14.3389 161.631 14.467 161.884 14.7266C162.134 14.9861 162.259 15.2873 162.259 15.6366C162.259 16.0147 162.137 16.3255 161.893 16.569C161.65 16.8125 161.339 16.9343 160.961 16.9343C160.583 16.9343 160.272 16.8125 160.029 16.569C159.785 16.3255 159.663 16.0147 159.663 15.6366ZM160.073 19.7989H161.849V30.4465H160.073V19.8021V19.7989Z" fill="white"/>
<path d="M165.373 22.327C165.373 21.8432 165.357 21.3882 165.328 20.962C165.296 20.5359 165.284 20.1514 165.284 19.8021H166.966C166.966 20.0905 166.972 20.3789 166.988 20.6673C167.004 20.9556 167.011 21.2504 167.011 21.5548H167.055C167.177 21.2985 167.347 21.0486 167.568 20.805C167.789 20.5615 168.049 20.3468 168.353 20.1578C168.658 19.9687 168.997 19.8149 169.378 19.7028C169.757 19.5874 170.167 19.533 170.606 19.533C171.304 19.533 171.907 19.6387 172.413 19.8502C172.919 20.0617 173.342 20.3596 173.675 20.7377C174.009 21.1158 174.255 21.5773 174.416 22.1124C174.576 22.6507 174.656 23.237 174.656 23.8747V30.4497H172.881V24.0573C172.881 23.1633 172.682 22.4584 172.288 21.9425C171.894 21.4267 171.279 21.1703 170.446 21.1703C169.869 21.1703 169.372 21.2696 168.956 21.4651C168.539 21.6638 168.196 21.9425 167.93 22.3078C167.664 22.6731 167.469 23.1057 167.337 23.6055C167.209 24.1054 167.145 24.6597 167.145 25.2653V30.453H165.37V22.3302L165.373 22.327Z" fill="white"/>
<path d="M177.774 15.6366C177.774 15.2873 177.899 14.9861 178.148 14.7266C178.398 14.4702 178.706 14.3389 179.071 14.3389C179.437 14.3389 179.741 14.467 179.994 14.7266C180.244 14.9861 180.369 15.2873 180.369 15.6366C180.369 16.0147 180.247 16.3255 180.004 16.569C179.76 16.8125 179.449 16.9343 179.071 16.9343C178.693 16.9343 178.382 16.8125 178.139 16.569C177.895 16.3255 177.774 16.0147 177.774 15.6366ZM178.184 19.7989H179.959V30.4465H178.184V19.8021V19.7989Z" fill="white"/>
<path d="M191.058 22.4617C190.68 22.0067 190.27 21.6767 189.831 21.4716C189.392 21.2665 188.905 21.164 188.376 21.164C187.784 21.164 187.261 21.2665 186.806 21.4716C186.351 21.6767 185.976 21.9619 185.682 22.3239C185.387 22.686 185.162 23.109 185.012 23.5864C184.861 24.0638 184.784 24.5765 184.784 25.1212C184.784 25.6659 184.871 26.1786 185.047 26.656C185.223 27.1335 185.464 27.5532 185.775 27.9185C186.085 28.2838 186.46 28.5658 186.899 28.7708C187.338 28.9759 187.832 29.0784 188.376 29.0784C189.543 29.0784 190.446 28.6395 191.084 27.7583L192.404 29.0111C191.888 29.6039 191.283 30.0365 190.584 30.3089C189.886 30.5812 189.152 30.719 188.376 30.719C187.556 30.719 186.806 30.5812 186.124 30.3089C185.441 30.0365 184.861 29.6488 184.384 29.1489C183.906 28.6491 183.535 28.0563 183.269 27.3738C183.003 26.6913 182.871 25.9415 182.871 25.1212C182.871 24.3009 183.003 23.5736 183.269 22.8911C183.535 22.2086 183.91 21.6158 184.393 21.1159C184.877 20.6161 185.46 20.2252 186.133 19.9432C186.809 19.6612 187.556 19.5234 188.373 19.5234C189.19 19.5234 189.908 19.6612 190.613 19.9336C191.318 20.2059 191.936 20.6321 192.468 21.2089L191.058 22.4617Z" fill="white"/>
</g>
<defs>
<clipPath id="clip0_22_3455">
<rect width="193" height="54.193" fill="white"/>
</clipPath>
</defs>
</svg>
