<svg width="32" height="35" viewBox="0 0 32 35" fill="none" xmlns="http://www.w3.org/2000/svg">
<g clip-path="url(#clip0_6_633)">
<path d="M31.7347 9.42186C26.5992 6.32395 21.4677 3.22189 16.3382 0.113635C16.1013 -0.0291545 15.9311 -0.0457099 15.6841 0.105357C10.5668 3.23224 5.44539 6.35085 0.317934 9.46118C0.0729022 9.61018 0 9.76745 0 10.0468C0.00810024 18.2314 0.00607518 26.4138 0.00607518 34.5963V34.9998H5.33198L27.9458 34.9336H31.9838C31.9878 34.8467 31.9939 34.7949 31.9939 34.7432C31.996 26.4552 31.9939 18.1672 32 9.8792C32 9.64743 31.917 9.53154 31.7347 9.42186ZM19.155 11.3257C21.6378 11.7251 21.4393 16.3109 18.8533 16.2758C16.1782 16.0626 16.4577 11.0691 19.155 11.3257ZM14.7222 12.4163C16.0121 14.4795 13.5254 17.863 11.6157 15.479C9.83572 13.2296 12.8166 9.37426 14.7222 12.4163ZM6.63207 17.6581C6.45387 16.3171 7.77623 14.7568 9.06214 15.5328C10.3582 16.2695 10.3643 18.5314 9.21807 19.3385C8.04961 20.2511 6.62802 18.9577 6.63207 17.6581ZM22.0772 27.0202C20.5604 29.6773 17.2049 28.2059 14.785 28.5453C8.57815 29.8449 7.90583 23.1421 11.8284 19.7296C13.5234 18.1217 16.0992 17.1946 18.266 18.4155C21.168 19.7855 23.9241 23.8498 22.0772 27.0202ZM24.7867 19.1171C23.1768 20.7788 21.255 18.1444 22.1663 16.4454C22.3789 15.9426 22.8164 15.4977 23.3267 15.3776C25.2403 14.9803 26.0281 17.9127 24.7867 19.1171Z" fill="white"/>
</g>
<defs>
<clipPath id="clip0_6_633">
<rect width="32" height="35" fill="white"/>
</clipPath>
</defs>
</svg>
