<svg width="12" height="15" viewBox="0 0 12 15" fill="none" xmlns="http://www.w3.org/2000/svg">
<g clip-path="url(#clip0_204_446)">
<path d="M6.00177 5.22892e-07C3.08102 -0.00117277 0.590055 1.97231 0.0844688 4.67793C-0.117265 5.75795 0.0587816 6.79397 0.455357 7.80828C0.976605 9.14349 1.76161 10.342 2.64811 11.486C3.58034 12.6892 4.61846 13.8073 5.74365 14.8545C5.9504 15.0469 6.04876 15.0475 6.25237 14.8569C7.8299 13.3785 9.25582 11.7852 10.4105 9.99003C11.052 8.99214 11.5826 7.94849 11.8583 6.80277C12.4911 4.17987 10.9499 1.4279 8.28223 0.425907C7.51227 0.13669 6.78302 5.22892e-07 6.00177 5.22892e-07ZM5.99425 3.04764C7.52542 3.05057 8.75023 4.20157 8.7496 5.6371C8.74898 7.05151 7.50412 8.20486 5.98172 8.20075C4.48376 8.19723 3.2483 7.03625 3.24955 5.63299C3.25018 4.20509 4.48251 3.0447 5.99425 3.04764Z" fill="white"/>
</g>
<defs>
<clipPath id="clip0_204_446">
<rect width="12" height="15" fill="white" transform="matrix(-1 0 0 1 12 0)"/>
</clipPath>
</defs>
</svg>
