<svg width="14" height="14" viewBox="0 0 14 14" fill="none" xmlns="http://www.w3.org/2000/svg">
<g clip-path="url(#clip0_204_432)">
<path d="M9.88941 13.9998C9.16617 13.9812 8.45114 13.797 7.76568 13.4988C5.04134 12.3131 2.93075 10.4169 1.36382 7.9057C0.794421 6.99353 0.34657 6.0227 0.107862 4.96745C-0.0169664 4.41489 -0.067336 3.85465 0.14564 3.31195C0.220099 3.12173 0.338905 2.93644 0.478517 2.78679C0.832199 2.4069 1.20614 2.0451 1.57789 1.6822C1.88667 1.38125 2.24638 1.22995 2.66959 1.40866C2.82837 1.47609 2.98002 1.58518 3.1043 1.70632C3.63921 2.22819 4.16425 2.76048 4.6904 3.29112C4.94334 3.54602 5.12073 3.83436 5.06543 4.21535C5.02656 4.48615 4.87271 4.69281 4.68711 4.87974C4.38216 5.18673 4.07392 5.49151 3.76787 5.7974C3.59322 5.97227 3.59103 6.0068 3.68903 6.22717C4.04162 7.01765 4.58309 7.67382 5.16234 8.30149C5.73611 8.92368 6.36792 9.48063 7.08569 9.93178C7.33151 10.0864 7.5965 10.2103 7.85218 10.3489C7.96989 10.4125 8.05968 10.367 8.144 10.2815C8.46154 9.96084 8.778 9.63905 9.10047 9.3233C9.20066 9.22518 9.31016 9.13199 9.42952 9.05963C9.77717 8.84912 10.1796 8.88037 10.4999 9.13144C10.5678 9.18461 10.6335 9.24162 10.6948 9.30247C11.2209 9.82708 11.746 10.3528 12.271 10.8779C12.4407 11.0479 12.5831 11.2365 12.6351 11.4766C12.7003 11.7775 12.6318 12.0609 12.4292 12.2802C12.0181 12.7248 11.5954 13.1606 11.1552 13.5761C10.8152 13.8973 10.3789 13.9987 9.88886 13.9993L9.88941 13.9998Z" fill="white"/>
<path d="M14 6.56283C13.6436 6.62422 13.2954 6.68397 12.9537 6.74263C12.2146 3.58785 10.2688 1.69333 7.0906 1.04593C7.0906 1.04264 7.08513 1.02017 7.08786 0.999334C7.13385 0.66604 7.18094 0.333294 7.22747 0C10.2469 0.360155 13.3304 2.78202 13.9994 6.56283H14Z" fill="white"/>
<path d="M10.1051 6.93029C9.70326 5.22271 8.65426 4.20802 6.93787 3.85445C6.98605 3.5069 7.03532 3.15332 7.08459 2.80029C8.95593 3.00805 10.79 4.54899 11.1612 6.74775C10.985 6.77844 10.8081 6.80969 10.6313 6.83984C10.4572 6.86999 10.2831 6.89959 10.1046 6.93029H10.1051Z" fill="white"/>
</g>
<defs>
<clipPath id="clip0_204_432">
<rect width="14" height="14" fill="white"/>
</clipPath>
</defs>
</svg>
