<svg width="16" height="16" viewBox="0 0 16 16" fill="none" xmlns="http://www.w3.org/2000/svg">
<g clip-path="url(#clip0_204_441)">
<path d="M8.00138 16.0001C3.63476 16.0206 0.0143496 12.4254 1.26628e-05 8.05405C-0.0143243 3.60824 3.54328 0.0246955 7.9966 0.000117959C12.368 -0.0237769 15.9864 3.58571 15.9993 7.98305C16.0123 12.3988 12.441 15.9783 8.00138 15.9994V16.0001ZM8.723 5.58947C8.723 4.94226 8.72573 4.29505 8.72164 3.64784C8.71959 3.32355 8.5414 3.06822 8.25739 2.96035C7.77745 2.77875 7.28112 3.12147 7.27907 3.64921C7.27429 5.09655 7.27771 6.54458 7.27634 7.99193C7.27634 8.22336 7.37397 8.40428 7.5344 8.56335C8.04166 9.06719 8.54618 9.57445 9.05207 10.0803C9.26098 10.2892 9.46374 10.5043 9.68016 10.7043C10.0891 11.0826 10.7356 10.9037 10.8776 10.3732C10.9548 10.0858 10.8681 9.83934 10.6571 9.62906C10.0495 9.02487 9.44599 8.41589 8.83633 7.81306C8.75304 7.73045 8.71891 7.64716 8.71959 7.52973C8.72437 6.88252 8.72232 6.23531 8.72164 5.5881L8.723 5.58947Z" fill="white"/>
</g>
<defs>
<clipPath id="clip0_204_441">
<rect width="15.9993" height="16" fill="white"/>
</clipPath>
</defs>
</svg>
