<svg width="40" height="27" viewBox="0 0 40 27" fill="none" xmlns="http://www.w3.org/2000/svg">
<path d="M8.74998 -1.30453e-06C11.4908 -1.52639e-06 13.7617 0.827997 15.5628 2.484C17.2856 4.14 18.147 6.516 18.147 9.612C18.147 12.924 17.129 16.2 15.0929 19.44C12.9786 22.68 10.0421 25.2 6.28328 27L3.58164 23.22C7.65367 20.628 10.0812 17.352 10.8643 13.392C10.1595 13.68 9.33729 13.824 8.39759 13.824C6.20497 13.824 4.40388 13.176 2.99433 11.88C1.58478 10.584 0.880011 8.928 0.880011 6.912C0.88001 4.896 1.62394 3.24 3.11179 1.944C4.59965 0.647998 6.47904 -1.1207e-06 8.74998 -1.30453e-06ZM30.363 -3.05404e-06C33.1038 -3.2759e-06 35.3748 0.827996 37.1758 2.484C38.8986 4.14 39.76 6.516 39.76 9.612C39.76 12.924 38.742 16.2 36.706 19.44C34.5917 22.68 31.6551 25.2 27.8963 27L25.1947 23.22C29.2667 20.628 31.6943 17.352 32.4774 13.392C31.7726 13.68 30.9503 13.824 30.0106 13.824C27.818 13.824 26.0169 13.176 24.6074 11.88C23.1978 10.584 22.4931 8.928 22.4931 6.912C22.4931 4.896 23.237 3.24 24.7248 1.944C26.2127 0.647996 28.0921 -2.87021e-06 30.363 -3.05404e-06Z" fill="#3A86BA"/>
</svg>
