<svg width="105" height="90" viewBox="0 0 105 90" fill="none" xmlns="http://www.w3.org/2000/svg">
<path d="M42.2093 23.8852C39.6843 27.3946 37.6888 31.005 37.1062 35.2541C36.6831 38.3484 36.9146 41.3842 37.8192 44.3747C37.8777 44.5637 37.931 44.7552 38.0028 45H31.008V44.4838C31.008 33.961 31.0106 23.4408 31 12.9207C31 12.5615 31.0958 12.3593 31.4177 12.1677C38.1545 8.16879 44.8832 4.1592 51.6066 0.136319C51.9312 -0.0579073 52.1547 -0.0366221 52.466 0.149623C59.2028 4.1459 65.9475 8.13154 72.6922 12.1145C72.9317 12.2555 73.0434 12.4072 73.0434 12.7025C73.0354 23.3584 73.0354 34.0142 73.0354 44.6701C73.0354 44.7366 73.0274 44.8031 73.0221 44.9149H67.7168C68.0228 43.675 68.3953 42.4511 68.6241 41.2033C70.4147 31.4973 68.3421 22.7225 62.1135 15.0173C60.3282 12.8063 58.1571 10.9837 55.5151 9.81306C54.2965 9.27295 53.0327 8.84725 51.6811 8.83661C49.9012 8.82064 48.2915 9.47782 46.7403 10.2521C45.9714 10.6352 45.4579 11.3243 45.0934 12.1065C45.0216 12.2582 44.9284 12.4072 44.8965 12.5695C44.5905 14.0914 43.6247 14.9694 42.2013 15.4962C41.3392 15.8155 40.5384 16.2997 39.7136 16.7148C38.1917 17.481 37.7873 19.0082 38.7265 20.4343C39.2905 21.2911 39.8839 22.1265 40.424 22.9965C40.8311 23.6537 41.2568 24.2071 42.2119 23.8852H42.2093Z" fill="#F9A543"/>
<path d="M62.1987 17.6891C62.0736 17.5056 61.9246 17.3326 61.781 17.1437C61.7065 17.8089 61.7091 18.4341 61.5548 19.0221C61.0466 20.9617 59.1815 22.1776 57.1727 21.9462C55.2198 21.72 53.6926 20.0225 53.6447 18.0191C53.6261 17.1969 53.674 16.3695 53.5915 15.5526C53.3973 13.6317 52.2612 12.1444 51.1863 10.6384C51.1145 10.5347 50.8537 10.4868 50.7127 10.5267C49.9039 10.7529 49.1057 11.0083 48.3075 11.2664C47.4215 11.5537 46.8069 12.1311 46.4637 12.9984C46.1736 13.7328 45.9023 14.4751 45.5644 15.1855C45.434 15.4648 45.1839 15.7389 44.9178 15.8959C44.25 16.2843 43.5449 16.6089 42.8478 16.9415C42.5977 17.0612 42.5312 17.1863 42.5658 17.4843C42.6217 17.9259 42.6111 18.3889 42.5312 18.8279C42.3689 19.7511 41.8022 20.4323 41.0333 20.9803C41.2568 21.3209 41.4829 21.6322 41.6745 21.9621C41.8262 22.2255 42.0018 22.3186 42.321 22.2894C44.399 22.0872 46.4743 21.8663 48.5576 21.7493C49.5074 21.6961 50.1646 21.4619 50.4732 20.4801C50.6382 19.956 51.157 19.8203 51.5827 20.0465C51.9898 20.2593 52.1255 20.6983 51.9047 21.1693C51.6758 21.6561 51.4231 22.1297 51.1863 22.614C51.0054 22.9811 50.7154 23.1461 50.3056 23.178C49.2839 23.2579 48.2622 23.3669 47.1767 23.468C47.1767 24.237 47.1634 24.958 47.19 25.679C47.1953 25.8014 47.3417 25.9611 47.4641 26.0276C48.0095 26.3256 48.5602 26.6129 49.1296 26.8683C51.0772 27.749 52.2106 29.2337 52.5512 31.3435C52.623 31.7958 52.7215 32.2907 52.9663 32.6632C53.7219 33.8073 53.8443 34.9567 53.2323 36.1859C53.1764 36.2976 53.094 36.4919 53.1365 36.5398C53.5782 37.0267 53.8203 37.6759 54.5227 37.9393C57.6117 39.1099 59.4476 41.3342 60.0036 44.5935C60.0542 44.8915 60.158 44.982 60.4533 44.9793C62.1694 44.966 63.8855 44.9633 65.6043 44.974C65.897 44.974 66.0034 44.8676 66.0885 44.6015C66.8335 42.2575 67.3789 39.8709 67.5599 37.4178C68.0867 30.2207 66.2987 23.641 62.204 17.6918L62.1987 17.6891ZM48.4911 16.7074C47.8977 16.7127 47.3949 16.2258 47.3789 15.6325C47.363 15.0205 47.8685 14.499 48.4804 14.4964C49.0764 14.4964 49.5766 14.9779 49.5926 15.5713C49.6059 16.1859 49.1057 16.702 48.4884 16.7074H48.4911ZM63.9467 29.1751C62.3716 30.7662 60.7859 32.3413 59.1975 33.919C58.684 34.4299 58.2875 34.4272 57.7687 33.9111C56.183 32.3306 54.5946 30.7582 53.0195 29.1671C51.7051 27.8395 51.6891 25.8706 52.9556 24.6015C54.2247 23.3324 56.1963 23.343 57.5346 24.6307C57.8379 24.9208 58.1226 25.232 58.5163 25.6365C58.8596 25.2613 59.1363 24.9261 59.4502 24.6254C60.7885 23.3377 62.768 23.3377 64.0239 24.6121C65.2877 25.8892 65.2637 27.8501 63.944 29.1778L63.9467 29.1751Z" fill="#F9A543"/>
<path d="M58.3407 44.3855C57.7288 41.8872 56.2228 40.1977 53.7671 39.3888C53.3281 39.2451 52.9902 39.0296 52.7241 38.6545C52.5086 38.3459 52.2478 38.0638 51.9951 37.7579C51.0851 38.6119 50.0581 39.1281 48.8662 39.2585C46.9904 39.4633 45.4339 38.8008 44.1675 37.4333C43.8535 37.09 43.8721 36.6484 44.1675 36.3371C44.4735 36.0125 44.9258 35.9965 45.3009 36.3051C45.4552 36.4329 45.5909 36.5872 45.7426 36.7202C46.4184 37.3295 47.2112 37.6647 48.1212 37.686C49.9145 37.7286 51.0612 36.6856 51.8541 35.2835C52.1707 34.7221 52.0084 34.158 51.6545 33.6259C51.439 33.3013 51.274 32.9341 51.149 32.5643C51.0319 32.2157 50.984 31.8459 50.9255 31.4787C50.6887 30.0447 49.9065 29.0283 48.5948 28.4004C47.7753 28.0093 46.9718 27.5889 46.155 27.1925C45.7452 26.9956 45.5457 26.7002 45.5563 26.2399C45.5723 25.5375 45.5617 24.8325 45.5617 24.0449C44.1675 24.3429 43.1751 25.0666 42.5046 26.2399C42.2651 26.663 42.031 27.0914 41.7702 27.5011C38.3753 32.8144 37.6489 38.4736 39.5326 44.4813C39.6471 44.8458 39.7987 44.9655 40.1898 44.9655C46.0991 44.9522 52.0084 44.9549 57.915 44.9549C58.0773 44.9549 58.2369 44.9389 58.4232 44.9309C58.3939 44.7154 58.3806 44.5478 58.3434 44.3882L58.3407 44.3855ZM47.9828 30.936C48.5974 30.936 49.103 31.4521 49.087 32.0667C49.071 32.6601 48.5735 33.147 47.9775 33.147C47.3815 33.147 46.884 32.6574 46.8733 32.0667C46.86 31.4495 47.3656 30.9386 47.9802 30.936H47.9828Z" fill="#F9A543"/>
<path d="M53.2456 10.7129C53.5516 10.8034 53.7379 10.8539 53.9241 10.9151C55.43 11.41 56.7763 12.2002 57.9656 13.2325C59.3731 14.4537 60.0782 16.0342 60.0994 17.8966C60.1154 19.2828 59.0538 20.3471 57.6996 20.355C56.3373 20.363 55.2837 19.3227 55.2544 17.9365C55.2385 17.1463 55.273 16.3561 55.2145 15.5686C55.1214 14.2914 54.6957 13.1128 54.0252 12.0219C53.7804 11.6255 53.5463 11.2237 53.243 10.7129H53.2456Z" fill="#F9A543"/>
<path d="M41.0093 17.9282C41.0386 18.6865 40.7406 19.2133 40.1552 19.6018C39.546 18.8435 39.8094 18.3247 41.0093 17.9282Z" fill="#F9A543"/>
<path d="M62.9569 27.852C61.4909 29.35 59.9717 30.8 58.4365 32.3006C56.9971 30.8639 55.5471 29.4351 54.121 27.9851C53.4691 27.3226 53.4984 26.3488 54.1396 25.7262C54.7595 25.1249 55.712 25.1249 56.3692 25.7421C56.8348 26.1812 57.2765 26.6441 57.7314 27.0938C58.3194 27.6764 58.668 27.6711 59.264 27.0778C59.7296 26.6148 60.1819 26.1386 60.6635 25.6943C61.302 25.1009 62.2439 25.1249 62.8532 25.7155C63.4545 26.2982 63.5556 27.2427 62.9569 27.852Z" fill="#F9A543"/>
<path d="M6.90837 87.5874C6.84501 87.6402 6.70246 87.6666 6.48072 87.6666C6.02667 87.202 5.58319 86.6054 5.15026 85.8768L5.05522 87.6824C4.98131 88.316 4.78596 88.8122 4.46919 89.1713C4.23689 89.4563 3.87787 89.5989 3.39215 89.5989C2.96978 89.5989 2.46822 89.5039 1.88746 89.3138C1.82411 89.2927 1.76603 89.2716 1.71323 89.2504C1.60764 89.1976 1.55485 89.0393 1.55485 88.7753C1.671 88.638 1.75019 88.5588 1.79243 88.5377C1.8769 88.5271 2.1884 88.5799 2.72692 88.6961C3.29711 88.8228 3.69308 88.7858 3.91483 88.5852C4.16825 88.374 4.32136 87.8989 4.37416 87.1597C4.38471 87.0225 4.38999 86.9274 4.38999 86.8746C4.44279 86.3889 4.45335 85.9296 4.42167 85.4966C4.41111 85.2855 4.38472 85.0954 4.34248 84.9264C3.33935 85.9718 2.44182 86.674 1.64988 87.033C1.62876 87.0436 1.60236 87.0541 1.57069 87.0647C1.3595 87.0647 1.22223 87.0013 1.15888 86.8746C1.15888 86.6634 1.16416 86.542 1.17472 86.5103C2.27287 85.8134 3.03314 85.2591 3.4555 84.8473C3.7406 84.5833 4.00458 84.2929 4.24745 83.9761C4.258 83.8072 4.18937 83.4851 4.04154 83.01C3.97819 82.7882 3.92011 82.6351 3.86731 82.5506C3.36047 83.2898 2.62133 83.9444 1.64988 84.5146L1.36478 84.5463C1.20639 84.4724 1.1272 84.3035 1.1272 84.0395C1.16943 83.9972 1.42814 83.8177 1.9033 83.501L2.09337 83.3742C2.67412 82.9413 3.17568 82.4028 3.59805 81.7587L3.18624 80.9351C3.15457 80.8823 3.11761 80.8348 3.07537 80.7925C2.55797 81.3627 2.00889 81.7587 1.42813 81.9804C1.24863 81.9804 1.11136 81.9118 1.01633 81.7745C0.995208 81.69 0.98465 81.6214 0.98465 81.5686C0.98465 81.4525 1.14832 81.3046 1.47565 81.1251C1.66572 81.009 1.78715 80.9245 1.83994 80.8717L2.25176 80.5549C2.79028 80.0692 3.20736 79.5782 3.50302 79.0819L1.3331 79.0502C1.15359 79.0397 1.08496 78.9077 1.1272 78.6543C1.13776 78.5592 1.15888 78.4906 1.19055 78.4484L1.39646 78.3375L6.48072 78.3533C6.66022 78.4484 6.7183 78.6015 6.65494 78.8127L6.55991 78.9869L6.44904 79.0502L4.37416 79.0819L3.62973 80.2065C4.15769 81.0512 4.56422 82.0015 4.84932 83.0575C5.1133 84.1662 5.61486 85.2591 6.35401 86.3361L6.98756 87.2231C7.04035 87.297 7.0298 87.3973 6.95588 87.524L6.90837 87.5874ZM4.89683 82.4873C4.79124 82.4345 4.73845 82.2814 4.73845 82.0279C5.35088 81.2782 5.77853 80.7292 6.02139 80.3807C6.12699 80.2223 6.28009 80.2012 6.48072 80.3174C6.62855 80.3913 6.70246 80.4969 6.70246 80.6341C6.70246 80.8664 6.35401 81.3522 5.6571 82.0913C5.49871 82.2602 5.37728 82.3764 5.29281 82.4398C5.24001 82.4714 5.10802 82.4873 4.89683 82.4873ZM13.2281 82.4081L13.038 82.4873H10.4246L8.9199 83.5485L12.2302 83.6118C12.4519 83.6224 12.6315 83.7597 12.7687 84.0236C12.8215 84.1187 12.8479 84.2031 12.8479 84.2771V88.6169C12.8479 88.8492 12.7001 89.0498 12.4044 89.2188L12.1352 89.3138L12.0877 89.3296L7.79534 89.3138C7.61583 89.3138 7.4416 89.1976 7.27266 88.9653C7.19874 88.8703 7.16179 88.7911 7.16179 88.7278L7.14595 84.5463C7.11427 84.5358 6.86085 84.615 6.38568 84.7839L5.863 84.9264H5.75213C5.57263 84.7892 5.51455 84.6255 5.5779 84.4354C5.58846 84.3932 5.60958 84.351 5.64126 84.3087C6.85557 83.9286 8.0646 83.332 9.26835 82.5189L6.16394 82.4714C5.93164 82.3764 5.86828 82.218 5.97387 81.9963C6.01611 81.9118 6.07947 81.8432 6.16394 81.7904L8.98325 81.7745L9.01493 80.0639L6.55991 80.0323C6.3804 79.9267 6.30649 79.7841 6.33817 79.6046C6.35929 79.5307 6.39096 79.4621 6.4332 79.3987L6.62327 79.3195H8.98325L9.03077 77.9257C9.04133 77.894 9.1258 77.8359 9.28419 77.7515C9.49537 77.7515 9.63264 77.7937 9.696 77.8782C9.71712 77.8993 9.73295 77.9257 9.74351 77.9574L9.77519 79.3037L12.0243 79.3353C12.1299 79.4093 12.1827 79.5518 12.1827 79.763C12.2249 79.7419 12.3516 79.6046 12.5628 79.3512C12.7318 79.1717 12.9166 79.0819 13.1172 79.0819C13.265 79.1347 13.3389 79.2298 13.3389 79.367C13.3389 79.5888 12.7898 80.2593 11.6917 81.3786L11.3116 81.7587L13.1489 81.7904C13.3178 81.7904 13.3706 81.9329 13.3072 82.218C13.2861 82.3025 13.2597 82.3658 13.2281 82.4081ZM12.1035 86.0352V84.6255C12.0401 84.4882 11.9609 84.3932 11.8659 84.3404L8.17547 84.3087C8.06988 84.3615 7.99596 84.4407 7.95373 84.5463L7.93789 86.0352H12.1035ZM12.1035 86.7954H7.93789V88.0942C7.93789 88.3582 8.0118 88.5219 8.15963 88.5852H11.8026C11.9398 88.5324 12.0349 88.4427 12.0877 88.316L12.1035 86.7954ZM11.9451 80.0323L9.79103 80.0639V81.7745H10.2187C10.7994 81.2994 11.3749 80.7186 11.9451 80.0323Z" fill="white"/>
<path d="M31.7119 89.3296C31.7119 89.4669 31.675 89.5777 31.601 89.6622C31.5377 89.7573 31.3899 89.7995 31.1576 89.7889H31.0308C30.0805 89.6939 28.8398 89.2715 27.3087 88.5218L26.4218 88.0467C24.9963 88.7964 23.6236 89.3402 22.3037 89.6781L21.6701 89.8206C21.4906 89.8312 21.3744 89.7361 21.3217 89.5355C21.2689 89.3349 21.3217 89.2029 21.48 89.1395C21.5434 89.1184 21.9077 89.0234 22.5729 88.8544C22.6996 88.8228 22.8052 88.7911 22.8897 88.7594C23.8823 88.4638 24.8379 88.0836 25.7565 87.619C24.3416 86.542 23.2857 85.0848 22.5888 83.2475H21.5592C21.5064 85.391 21.1527 87.165 20.498 88.5693L20.1337 89.2504V89.2663C20.007 89.4352 19.8486 89.4722 19.6586 89.3771C19.4896 89.2821 19.4263 89.1343 19.4685 88.9336C20.3132 87.5398 20.7462 86.0351 20.7673 84.4196L20.8148 79.6996C20.8148 79.5412 20.9415 79.367 21.1949 79.1769C21.3111 79.0925 21.4061 79.0502 21.48 79.0502L25.5189 79.0344C25.5401 78.9921 25.5453 78.781 25.5348 78.4008C25.5242 78.0524 25.6298 77.8729 25.8516 77.8623C25.9677 77.8623 26.0839 77.8993 26.2 77.9732C26.2845 78.1844 26.3162 78.5275 26.295 79.0027L30.8091 79.0502C31.0097 79.0502 31.2051 79.1928 31.3951 79.4779C31.5641 79.7313 31.5535 80.1325 31.3635 80.6816C31.3529 80.7027 31.3423 80.7397 31.3318 80.7925C31.1206 81.3944 30.8619 81.8062 30.5557 82.0279C30.2178 82.0279 30.0436 81.917 30.033 81.6953C30.033 81.6425 30.0436 81.5791 30.0647 81.5052L30.5715 80.6341C30.6666 80.4229 30.7141 80.2117 30.7141 80.0005C30.6085 79.8422 30.4923 79.763 30.3656 79.763H26.3267L26.295 82.4872L29.3994 82.5348C29.6212 82.5348 29.8218 82.6351 30.0013 82.8357C30.0436 82.8779 30.07 82.9202 30.0805 82.9624C30.2072 83.2264 30.1439 83.7279 29.8904 84.4671C29.4786 85.4702 28.5441 86.5209 27.087 87.619C27.8895 88.0942 28.9032 88.4796 30.128 88.7752L31.3793 89.0287C31.411 89.0392 31.4374 89.0498 31.4585 89.0603C31.5746 89.1026 31.6591 89.1923 31.7119 89.3296ZM25.5189 82.4872V79.763H21.9394C21.8127 79.763 21.6912 79.8474 21.5751 80.0164L21.5592 82.4872H25.5189ZM29.1777 83.2792L23.3807 83.2475C23.7608 84.2823 24.3891 85.2643 25.2655 86.1935C25.6562 86.6159 26.0416 86.9485 26.4218 87.1914C27.6149 86.3889 28.4966 85.4438 29.0668 84.3562C29.2147 84.0606 29.2991 83.8705 29.3203 83.786C29.3308 83.6488 29.3202 83.5326 29.2886 83.4376C29.2675 83.3531 29.2305 83.3003 29.1777 83.2792Z" fill="white"/>
<path d="M44.7315 80.3012C44.7315 80.5018 44.7051 80.6443 44.6523 80.7288L44.4622 80.808H41.9122L41.8963 81.6316L43.987 81.695C44.1243 81.695 44.2774 81.8217 44.4464 82.0751L44.5572 82.3127V84.9261C44.5572 85.169 44.42 85.3801 44.1454 85.5597C44.0187 85.6441 43.8973 85.6864 43.7811 85.6864H41.9122L41.8963 86.51L44.2563 86.5575C44.478 86.642 44.5203 86.8056 44.383 87.0485C44.3197 87.1541 44.2457 87.228 44.1613 87.2703H41.9122L41.8963 88.2998L43.9237 88.0622C44.0082 88.0622 44.0768 88.0675 44.1296 88.078C44.2246 88.0886 44.3197 88.1625 44.4147 88.2998C44.4147 88.511 44.3777 88.6535 44.3038 88.7274C44.2405 88.8013 42.3028 89.0231 38.491 89.3926C38.4276 89.3926 38.3801 89.3979 38.3484 89.4085C38.1478 89.419 38.0369 89.3135 38.0158 89.0917C37.9947 88.8911 38.0528 88.7697 38.19 88.7274C38.5068 88.6535 39.4519 88.5479 41.0252 88.4106C41.0569 88.4001 41.0833 88.3948 41.1044 88.3948L41.1361 87.2703L38.2851 87.2386C38.095 87.2386 38.0369 87.096 38.1108 86.8109C38.132 86.7264 38.1584 86.6631 38.19 86.6209L38.3643 86.5417H41.1044L41.1361 85.7022L39.1087 85.6705C38.9292 85.66 38.7602 85.5438 38.6018 85.3221C38.5279 85.227 38.491 85.1426 38.491 85.0687V82.3444C38.491 82.1332 38.6335 81.9378 38.9186 81.7583C39.0348 81.6844 39.1404 81.6475 39.2354 81.6475H41.1044L41.1361 80.8239L38.1425 80.7763C38.0897 80.7763 38.0158 80.7024 37.9208 80.5546C37.9208 80.3751 37.9472 80.2537 38 80.1903L38.2059 80.0794H41.1044L41.1361 79.3192L39.3621 79.3667C39.1298 79.3561 38.9133 79.3297 38.7127 79.2875C38.5966 79.1925 38.5649 79.0605 38.6177 78.8915C38.6494 78.7648 38.7233 78.6962 38.8394 78.6856C38.9028 78.6751 39.5152 78.6539 40.6767 78.6223C40.8668 78.6117 41.0357 78.6011 41.1836 78.5906C41.7749 78.5483 42.6988 78.4375 43.9554 78.258C44.0504 78.2474 44.1454 78.258 44.2405 78.2896C44.3249 78.3213 44.383 78.3688 44.4147 78.4322V78.8282C44.0768 79.0182 43.496 79.1344 42.6724 79.1766C42.3345 79.1977 42.0811 79.2189 41.9122 79.24L41.8963 80.0478L44.5572 80.1111C44.61 80.1111 44.6681 80.1745 44.7315 80.3012ZM41.1044 83.3422V82.3919H39.5047C39.2935 82.3919 39.2037 82.7087 39.2354 83.3422H41.1044ZM41.1044 84.9419V84.1025H39.2354C39.2565 84.4509 39.2724 84.6463 39.2829 84.6885C39.3252 84.7941 39.3885 84.8733 39.473 84.9261L41.1044 84.9419ZM43.797 83.3422C43.797 82.941 43.7864 82.7087 43.7653 82.6453C43.7231 82.508 43.6491 82.4341 43.5436 82.4236L41.9122 82.3919V83.3422H43.797ZM43.797 84.1025H41.9122V84.9419L43.496 84.9261L43.6861 84.7994C43.76 84.6832 43.797 84.4509 43.797 84.1025ZM45.9511 88.6007C46.0672 88.5901 46.4104 88.6588 46.9806 88.8066C47.5402 88.9544 47.9309 88.9386 48.1527 88.7591C48.6278 88.3684 48.8865 87.5131 48.9288 86.1932C48.9288 86.2249 48.934 86.114 48.9446 85.8606L49.0871 82.5186L49.0713 81.6316C49.0502 81.3888 49.0027 81.167 48.9288 80.9664C48.707 80.7975 48.2371 80.7235 47.5191 80.7447L47.234 80.7605L47.1231 82.3602V82.3761C46.7852 85.2798 46.1306 87.5237 45.1591 89.1076C44.874 89.5405 44.5836 89.7622 44.288 89.7728C44.1613 89.6989 44.0768 89.6144 44.0346 89.5194C44.0346 89.3715 44.1454 89.1603 44.3672 88.8858C44.4516 88.7908 44.5097 88.7169 44.5414 88.6641C45.1961 87.4709 45.6765 86.2354 45.9827 84.9578C46.0566 84.6516 46.1094 84.3823 46.1411 84.15C46.2678 82.9885 46.3576 82.1174 46.4104 81.5366C46.4104 81.5155 46.4262 81.2621 46.4579 80.7763C46.384 80.7447 46.1358 80.7447 45.7135 80.7763L45.3492 80.7605C45.2013 80.7183 45.0958 80.6232 45.0324 80.4754C45.0324 80.2959 45.0852 80.1639 45.1908 80.0794C45.3492 80.0372 45.7663 80.0214 46.4421 80.0319L46.4896 80.0002L46.5054 78.1313C46.6004 77.9517 46.7377 77.8673 46.9172 77.8778C46.9383 77.8884 46.9595 77.8937 46.9806 77.8937C47.139 77.957 47.2182 78.0257 47.2182 78.0996V80.0161L48.7545 80.0319C49.2508 80.0953 49.5781 80.2748 49.7365 80.5704C49.8527 80.8239 49.8896 81.4627 49.8474 82.4869V82.8037C49.8474 83.2155 49.8316 83.6168 49.7999 84.0075C49.7365 85.7392 49.6045 87.0802 49.4039 88.0305C49.2033 88.9069 48.7968 89.4349 48.1843 89.6144C47.8359 89.7094 47.3607 89.7094 46.7588 89.6144C46.0725 89.5088 45.7293 89.3135 45.7293 89.0284C45.7293 88.8172 45.8032 88.6746 45.9511 88.6007Z" fill="white"/>
<path d="M59.5566 85.5599L59.509 89.6146C59.509 89.6886 59.4457 89.7572 59.319 89.8205C58.9705 89.8205 58.7963 89.7255 58.7963 89.5355V85.94L56.9432 86.4469C56.7953 86.4891 56.6792 86.5102 56.5947 86.5102C56.468 86.4469 56.4046 86.2938 56.4046 86.0509C56.468 85.9348 56.563 85.8608 56.6897 85.8292C56.9748 85.7553 57.6665 85.523 58.7646 85.1323L58.7963 81.2042L57.5925 81.1884C57.3708 82.2021 57.2177 82.8145 57.1332 83.0257C57.0593 83.2474 56.9748 83.4375 56.8798 83.5959C56.8164 83.7015 56.6845 83.749 56.4838 83.7384L56.4046 83.7226C56.3624 83.7226 56.299 83.6645 56.2146 83.5484C56.2146 83.39 56.299 83.0943 56.468 82.6614C56.4891 82.6086 56.505 82.5611 56.5155 82.5189C56.79 81.6741 56.9484 80.6499 56.9907 79.4461L57.0223 78.4958C57.0329 78.4113 57.1015 78.3321 57.2283 78.2582C57.355 78.2582 57.487 78.2793 57.6242 78.3216L57.7351 78.48C57.7879 78.7967 57.7668 79.3458 57.6717 80.1272L57.6401 80.444L58.7646 80.4598L58.8121 78.0206C58.8121 77.9784 58.8808 77.915 59.018 77.8306C59.2187 77.8306 59.3559 77.857 59.4299 77.9098L59.509 78.0365L59.5407 80.444L60.9029 80.4756C60.9451 80.4756 61.0085 80.5496 61.0929 80.6974C61.0929 80.8663 61.0665 80.993 61.0137 81.0775L60.8237 81.1884H59.5566L59.5407 84.7363C59.7519 84.6941 60.1162 84.5198 60.6336 84.2136C60.7075 84.1608 60.7709 84.1239 60.8237 84.1027C61.0243 84.1027 61.1563 84.1714 61.2196 84.3086C61.2513 84.372 61.2619 84.4565 61.2513 84.5621C61.2408 84.5937 61.2302 84.6201 61.2196 84.6413C61.0613 84.8208 60.5544 85.1059 59.6991 85.4966C59.6463 85.5282 59.5988 85.5493 59.5566 85.5599ZM63.7222 88.6802C63.8594 88.6802 64.2026 88.7435 64.7517 88.8702C64.984 88.923 65.1846 88.9494 65.3536 88.9494C66.4728 88.9494 67.0906 88.2208 67.2067 86.7637C67.2912 86.0351 67.344 85.486 67.3651 85.1164L67.4918 80.7132C67.4918 80.4598 67.3651 80.2486 67.1117 80.0797C67.0378 80.0374 66.8319 80.0163 66.494 80.0163C66.3461 84.1027 64.9946 87.1227 62.4392 89.0761C61.9957 89.3929 61.6314 89.5513 61.3463 89.5513C61.2196 89.4985 61.1352 89.3876 61.0929 89.2187C61.1352 89.0497 61.32 88.8702 61.6473 88.6802C61.7846 88.6062 61.8849 88.5429 61.9482 88.4901C64.2924 86.5472 65.5436 83.9919 65.702 80.8241C65.7126 80.5601 65.7179 80.2961 65.7179 80.0322L64.625 80.0163H64.6091C64.3557 83.1207 63.1836 85.5335 61.0929 87.2547C61.0296 87.2969 60.9715 87.3444 60.9187 87.3972H60.5702C60.4647 87.3127 60.396 87.2071 60.3643 87.0804L60.4277 86.8745C62.5079 85.1006 63.643 82.8198 63.833 80.0322L62.6293 80.0163C62.3864 81.03 62.0591 81.8695 61.6473 82.5347C61.5734 82.6508 61.4995 82.7564 61.4255 82.8515C61.2355 83.0838 61.0349 83.1735 60.8237 83.1207C60.697 83.0891 60.6072 82.994 60.5544 82.8356L60.5702 82.6456C61.5734 81.389 62.1013 79.8843 62.1541 78.1315C62.1964 78.047 62.3125 77.9731 62.5026 77.9098C62.6504 77.9309 62.7771 78.0101 62.8827 78.1473C62.8827 78.4008 62.851 78.7756 62.7877 79.2719L67.4918 79.3194C67.7241 79.3194 67.93 79.4778 68.1095 79.7946L68.2046 79.9846C68.3207 80.3542 68.3471 81.2623 68.2837 82.7089L68.0937 86.1935C68.0198 87.4289 67.8033 88.3 67.4443 88.8069C67.1592 89.2187 66.7632 89.4985 66.2564 89.6463C65.9079 89.7414 65.4064 89.7519 64.7517 89.678C63.9281 89.583 63.5163 89.3718 63.5163 89.0444C63.5163 88.8861 63.5849 88.7646 63.7222 88.6802Z" fill="white"/>
<path d="M82.1401 84.5143L82.1084 85.1795L85.2128 85.2112C85.3712 85.2218 85.5296 85.3485 85.688 85.5913C85.7513 85.6758 85.783 85.7444 85.783 85.7972V88.8383C85.783 89.0284 85.6774 89.1973 85.4662 89.3451L85.3712 89.4085C85.1917 89.4613 85.0967 89.4877 85.0861 89.4877L76.0105 89.4718C75.8309 89.4718 75.6673 89.3399 75.5194 89.0759C75.4667 88.9703 75.4403 88.8805 75.4403 88.8066L75.4719 85.7497C75.4719 85.6336 75.5934 85.4857 75.8362 85.3062C75.9207 85.2429 75.9893 85.2112 76.0421 85.2112H78.9565L78.9882 84.546L74.5691 84.4826C74.4741 84.4826 74.4319 84.3717 74.4424 84.15C74.453 84.1183 74.4952 84.0814 74.5691 84.0391C74.5902 84.018 74.6061 84.0022 74.6166 83.9916L86.7017 84.0233C86.8706 84.0972 86.9076 84.2186 86.8125 84.3876C86.7808 84.4509 86.7386 84.4826 86.6858 84.4826L82.1401 84.5143ZM86.8125 83.3739C86.7914 83.5323 86.7281 83.6326 86.6225 83.6748C86.2846 83.8227 85.519 83.7012 84.3258 83.3105L83.5497 83.0096L83.5022 82.9779C82.4885 83.432 81.4273 83.659 80.3186 83.659C80.1813 83.6062 80.1127 83.4953 80.1127 83.3264L75.567 83.2472C75.3875 83.2472 75.2238 83.131 75.076 82.8987C75.0232 82.8248 74.9968 82.7562 74.9968 82.6928L75.0126 78.749C75.1604 78.4322 75.3611 78.2738 75.6145 78.2738H80.2077C80.3661 78.2738 80.4295 78.3688 80.3978 78.5589L80.3186 78.7331L80.2711 78.7648L77.23 78.7806L77.2142 78.8123C77.3409 78.8651 77.3726 78.9971 77.3092 79.2083C77.2881 79.2822 77.2776 79.335 77.2776 79.3667L79.9385 79.3984C80.023 79.3984 80.0652 79.5145 80.0652 79.7468C79.9596 79.8524 79.8962 79.9052 79.8751 79.9052H78.6714L78.6397 80.5704C79.495 80.5704 79.9543 80.5757 80.0177 80.5863C80.1655 80.5968 80.3028 80.618 80.4295 80.6496C80.4506 80.7024 80.4612 80.808 80.4612 80.9664L80.3503 81.0773L78.9406 81.109L80.081 82.1068C80.1021 82.1279 80.1127 82.2441 80.1127 82.4553C79.986 82.5925 79.8804 82.6664 79.7959 82.677L79.6217 82.6295L78.3863 81.4574C78.154 81.7531 77.8002 82.0593 77.3251 82.3761C76.7126 82.7773 76.3114 82.8301 76.1213 82.5344C76.1213 82.281 76.1794 82.1279 76.2955 82.0751C76.8552 81.8428 77.2036 81.6791 77.3409 81.5841C77.4993 81.4574 77.6524 81.299 77.8002 81.109L75.9946 81.0773C75.8573 81.0034 75.8098 80.8978 75.8521 80.7605C75.8732 80.6971 75.9101 80.6443 75.9629 80.6021L76.1213 80.5546C75.9629 80.4912 75.8679 80.412 75.8362 80.317C75.8362 80.1481 75.9629 79.9316 76.2164 79.6676C76.3431 79.5515 76.4275 79.4564 76.4698 79.3825L76.8024 78.8123L76.1213 78.7806L75.8837 78.844L75.7729 78.9707L75.7412 79.0182V82.4553C75.7412 82.5608 75.8045 82.6506 75.9313 82.7245C75.9629 82.7456 75.9893 82.7562 76.0105 82.7562L80.2711 82.8037C80.345 82.8565 80.382 82.9146 80.382 82.9779C81.1422 82.9779 81.9131 82.8512 82.6944 82.5978L81.7124 81.9484C81.5224 81.8111 81.364 81.6686 81.2373 81.5208C81.195 81.4152 81.1897 81.3254 81.2214 81.2515C81.2531 81.1987 81.2953 81.1512 81.3481 81.109C81.0841 81.0456 80.9997 80.9136 81.0947 80.713C81.1369 80.6179 81.1845 80.5704 81.2373 80.5704L85.3078 80.6021C85.4345 80.6021 85.556 80.6919 85.6721 80.8714C85.8411 81.2621 85.5507 81.7214 84.801 82.2493L84.31 82.5978C84.933 82.809 85.6985 82.9674 86.6066 83.073C86.7122 83.1258 86.7808 83.2261 86.8125 83.3739ZM85.0386 87.8088V86.0507C84.9541 85.8712 84.8696 85.7708 84.7852 85.7497L82.1401 85.7339L82.1242 86.415C82.1453 86.5945 82.214 86.7159 82.3301 86.7792L83.4389 86.7951C83.5972 86.7845 83.7081 86.7634 83.7715 86.7317C83.8665 86.6895 83.9299 86.5469 83.9615 86.3041C83.9932 86.0823 84.1094 85.9662 84.31 85.9556C84.5423 85.9556 84.6215 86.1774 84.5476 86.6209C84.537 86.6631 84.5317 86.7001 84.5317 86.7317C84.4367 87.228 83.9721 87.4656 83.1379 87.4445L82.3301 87.4128C82.1084 87.4128 81.9447 87.3917 81.8391 87.3494C81.5012 87.2333 81.3481 86.8004 81.3798 86.0507C81.3904 85.8712 81.3956 85.7656 81.3956 85.7339H79.6692C79.5953 86.4625 79.0357 86.9746 77.9903 87.2703C77.5574 87.3864 77.1244 87.4445 76.6915 87.4445C76.5226 87.3706 76.4487 87.228 76.4698 87.0168C76.4909 86.8901 76.5595 86.8056 76.6757 86.7634C76.7496 86.7423 76.9133 86.7212 77.1667 86.7001C77.9375 86.5628 78.4602 86.3252 78.7347 85.9873C78.8086 85.9134 78.8667 85.8289 78.909 85.7339H76.4698C76.3959 85.7339 76.3219 85.8025 76.248 85.9398L76.2164 87.8088H85.0386ZM85.0386 88.3631H76.2164L76.2639 88.7749C76.3061 88.8805 76.3642 88.9333 76.4381 88.9333L84.5317 88.9492C84.8274 88.9597 84.9911 88.833 85.0227 88.569C85.0333 88.5162 85.0386 88.4476 85.0386 88.3631ZM77.9111 80.5546V79.921H76.9133C76.7232 80.2273 76.5173 80.4384 76.2955 80.5546H77.9111ZM81.3956 85.1795V84.546H79.7167V85.1795H81.3956ZM84.6584 80.2695C84.3417 80.1217 84.1833 79.8735 84.1833 79.5251V78.9074L84.0091 78.749L82.3935 78.7331C82.2562 78.7226 82.1717 78.8915 82.1401 79.24L82.1084 79.3984C82.0239 79.6518 81.7705 79.921 81.3481 80.2061C80.8307 80.5546 80.5087 80.6021 80.382 80.3487C80.3714 80.3276 80.3661 80.2009 80.3661 79.9686C80.4189 79.9052 80.609 79.7838 80.9363 79.6043C81.063 79.5304 81.1633 79.4564 81.2373 79.3825C81.3323 79.2875 81.4168 79.0657 81.4907 78.7173C81.6174 78.4005 81.7863 78.2316 81.9975 78.2104C83.0746 78.2104 83.8823 78.2157 84.4209 78.2263C84.706 78.2263 84.8696 78.4955 84.9119 79.0341L84.9752 79.6835C84.9752 79.6835 84.9911 79.7046 84.9911 79.7151C85.0544 79.7468 85.2814 79.7627 85.6721 79.7627C85.7672 79.6887 85.8252 79.5198 85.8464 79.2558C85.8569 79.0446 85.9255 78.9126 86.0523 78.8598C86.2951 78.8598 86.4429 78.9126 86.4957 79.0182C86.5697 79.1661 86.5749 79.3878 86.5116 79.6835C86.4905 79.8418 86.4535 79.958 86.4007 80.0319C86.2529 80.2537 85.783 80.3381 84.9911 80.2853L84.6584 80.2695ZM84.5792 81.109H81.7599C82.1506 81.4574 82.7314 81.8375 83.5022 82.2493L84.2783 81.8217C84.4261 81.7161 84.5423 81.6052 84.6268 81.4891L84.6584 81.2198C84.6479 81.1776 84.6215 81.1406 84.5792 81.109Z" fill="white"/>
<path d="M93.7974 86.7955L93.7341 89.5515C93.7341 89.6465 93.6707 89.7204 93.544 89.7732C93.3961 89.7943 93.2747 89.7679 93.1797 89.694C93.1269 89.6623 93.0794 89.6148 93.0371 89.5515V78.9711C93.0371 78.7072 93.2906 78.4854 93.7974 78.3059L95.6822 78.3376C95.8301 78.3376 96.0043 78.4537 96.2049 78.686C96.3105 78.8128 96.358 78.9131 96.3474 78.987C96.3369 79.346 96.1204 80.1854 95.6981 81.5053C95.6242 81.7165 95.5713 81.8855 95.5397 82.0122C95.4763 82.2023 95.6453 82.6193 96.0465 83.2635C96.1627 83.4535 96.2419 83.5855 96.2841 83.6594C96.6642 84.4197 96.7857 85.1324 96.6484 85.7977C96.5956 86.0828 96.4794 86.3256 96.2999 86.5263C95.9937 86.9064 95.5502 87.0965 94.9695 87.0965C94.621 87.0965 94.2303 86.9961 93.7974 86.7955ZM95.5713 79.2562C95.413 79.0979 95.0011 79.0345 94.3359 79.0662H94.1459C93.9241 79.1401 93.8132 79.214 93.8132 79.2879V85.8927C94.2356 86.1567 94.6263 86.2887 94.9853 86.2887C95.8301 86.2887 96.0782 85.6604 95.7297 84.4039C95.7086 84.3299 95.6822 84.2507 95.6505 84.1663C95.64 84.1029 95.4552 83.7597 95.0962 83.1367C94.8111 82.6193 94.6949 82.2656 94.7477 82.0755L95.3971 80.064C95.5133 79.6733 95.5713 79.4041 95.5713 79.2562ZM104.378 89.6623C103.491 89.8418 102.767 89.8577 102.208 89.7099L101.875 89.5673C101.854 89.5567 101.838 89.5462 101.828 89.5356C101.638 89.3456 101.532 89.1555 101.511 88.9654L101.479 84.4514L99.5944 84.4355C99.5944 85.8505 99.2935 87.0225 98.6916 87.9517C98.2375 88.6487 97.6251 89.1925 96.8543 89.5831C96.5586 89.731 96.2894 89.8049 96.0465 89.8049C95.8881 89.7204 95.8089 89.6148 95.8089 89.4881C95.8089 89.3086 96.0043 89.1344 96.395 88.9654C96.585 88.881 96.7065 88.8229 96.7593 88.7912C98.0052 87.9781 98.6863 86.88 98.8025 85.4967C98.8236 85.1694 98.8236 84.8209 98.8025 84.4514L96.981 84.4197C96.886 84.4197 96.8173 84.3458 96.7751 84.1979C96.7645 84.1768 96.7593 84.1557 96.7593 84.1346C96.7487 84.0184 96.7751 83.9181 96.8384 83.8337C96.8912 83.7492 96.9599 83.7069 97.0444 83.7069L104.599 83.7386C104.79 83.8231 104.848 83.9762 104.774 84.1979L104.663 84.3563C104.642 84.388 104.615 84.4091 104.584 84.4197L102.255 84.4355V88.7754C102.371 89.0077 102.704 89.1027 103.253 89.0605C103.792 89.0288 104.114 88.8968 104.219 88.6645L104.299 87.2073C104.32 87.0595 104.346 86.9275 104.378 86.8114C104.409 86.7691 104.563 86.748 104.837 86.748C104.964 86.8958 105.017 87.2496 104.995 87.8092C104.995 88.6011 104.869 89.1502 104.615 89.4564C104.552 89.5303 104.473 89.599 104.378 89.6623ZM103.744 81.5845L103.934 80.3808C103.945 79.9267 103.723 79.6997 103.269 79.6997L98.1848 79.7156C98.0369 79.7367 97.8997 79.8317 97.7729 80.0007C97.7413 80.0429 97.7202 80.0799 97.7096 80.1115C97.6674 80.2488 97.6568 80.6025 97.6779 81.1727L97.6462 81.6321C97.6251 81.7377 97.5142 81.8116 97.3136 81.8538C97.2819 81.8644 97.1869 81.8274 97.0285 81.7429L96.9335 81.5212V80.4125C96.9335 79.5889 97.2028 79.1242 97.7413 79.0187C98.0158 78.9764 98.7391 78.9606 99.9112 78.9711C100.07 78.9817 100.202 78.9817 100.307 78.9711L100.339 78.1158C100.371 77.9258 100.476 77.8202 100.656 77.7991C100.719 77.7885 100.798 77.8043 100.893 77.8466C100.925 77.8677 100.951 77.8835 100.972 77.8941C101.067 78.1264 101.104 78.4854 101.083 78.9711L103.934 78.987C104.145 78.9975 104.357 79.1612 104.568 79.478C104.631 79.573 104.673 79.6575 104.694 79.7314C104.779 80.0587 104.753 80.4969 104.615 81.046C104.552 81.2994 104.478 81.5053 104.394 81.6637C104.362 81.7377 104.283 81.7746 104.156 81.7746C103.966 81.7746 103.829 81.7113 103.744 81.5845ZM103.111 81.9013H98.3907C98.2111 81.7852 98.1478 81.6321 98.2006 81.442C98.2112 81.3998 98.2323 81.347 98.2639 81.2836L98.4382 81.1886L103.126 81.2044C103.317 81.2783 103.38 81.4262 103.317 81.6479C103.274 81.7641 103.206 81.8485 103.111 81.9013Z" fill="white"/>
<path d="M7.32809 67.7384C7.32809 68.1872 7.26209 68.636 7.13011 69.0795C6.99811 69.523 6.78693 69.9268 6.49391 70.2885C6.20089 70.6501 5.81284 70.9458 5.3324 71.1702C4.85196 71.3946 4.25536 71.5081 3.54261 71.5081C2.60548 71.5081 1.8241 71.2705 1.19847 70.7953C0.572835 70.3202 0.174227 69.6074 0 68.6597L1.57332 68.3403C1.67363 68.8656 1.88746 69.2801 2.22007 69.5863C2.55005 69.8925 2.99881 70.0456 3.56109 70.0456C4.00986 70.0456 4.37943 69.9638 4.66717 69.8028C4.95491 69.6417 5.17665 69.4279 5.3324 69.1666C5.48815 68.9052 5.59638 68.6017 5.65973 68.2585C5.72309 67.9153 5.75213 67.5616 5.75213 67.1999V57.8999H7.32545V67.7384H7.32809Z" fill="white"/>
<path d="M10.6278 57.8999H14.5638C15.1762 57.8999 15.7596 57.958 16.3166 58.0768C16.8736 58.1956 17.3673 58.3962 17.7975 58.676C18.2278 58.9585 18.571 59.3333 18.8297 59.8006C19.0858 60.2704 19.2151 60.8459 19.2151 61.5349C19.2151 62.2609 19.0778 62.8601 18.8033 63.3353C18.5288 63.8104 18.175 64.1853 17.7447 64.4598C17.3145 64.7344 16.8419 64.9297 16.3298 65.0406C15.8177 65.1541 15.3293 65.2095 14.8674 65.2095H12.2064V71.1702H10.6331V57.8999H10.6278ZM12.2012 63.7471H14.8621C15.6487 63.7471 16.2902 63.5702 16.7839 63.2138C17.2775 62.8575 17.523 62.3057 17.523 61.556C17.523 60.8063 17.2749 60.2546 16.7839 59.8982C16.2902 59.5419 15.6487 59.365 14.8621 59.365H12.2012V63.7497V63.7471Z" fill="white"/>
<path d="M26.9524 57.8999H30.8883C31.5008 57.8999 32.0842 57.958 32.6412 58.0768C33.1982 58.1956 33.6918 58.3962 34.1221 58.676C34.5524 58.9585 34.8956 59.3333 35.1543 59.8006C35.4103 60.2704 35.5397 60.8459 35.5397 61.5349C35.5397 62.2609 35.4024 62.8601 35.1279 63.3353C34.8533 63.8104 34.4996 64.1853 34.0693 64.4598C33.639 64.7344 33.1665 64.9297 32.6544 65.0406C32.1422 65.1541 31.6539 65.2095 31.1919 65.2095H28.531V71.1702H26.9577V57.8999H26.9524ZM28.5257 63.7471H31.1866C31.9733 63.7471 32.6148 63.5702 33.1084 63.2138C33.602 62.8575 33.8476 62.3057 33.8476 61.556C33.8476 60.8063 33.5994 60.2546 33.1084 59.8982C32.6148 59.5419 31.9733 59.365 31.1866 59.365H28.5257V63.7497V63.7471Z" fill="white"/>
<path d="M45.6369 69.5762C45.1116 70.252 44.5361 70.7219 43.9131 70.9912C43.2875 71.2604 42.5641 71.3951 41.7379 71.3951C41.0515 71.3951 40.4312 71.2736 39.8821 71.0308C39.333 70.7879 38.8658 70.4579 38.4857 70.0461C38.1055 69.6343 37.8099 69.1459 37.604 68.5837C37.3981 68.0214 37.2951 67.4222 37.2951 66.7833C37.2951 66.1075 37.4086 65.4872 37.633 64.917C37.8574 64.3494 38.1689 63.8611 38.5701 63.4545C38.9687 63.048 39.4439 62.7339 39.9956 62.5068C40.5447 62.2825 41.1439 62.1689 41.796 62.1689C42.4084 62.1689 42.9707 62.2719 43.4828 62.4778C43.9949 62.6837 44.4358 62.9846 44.8053 63.378C45.1749 63.7713 45.4574 64.2518 45.658 64.8219C45.8586 65.3895 45.9589 66.0363 45.9589 66.7622V67.2294H38.8737C38.8975 67.6043 38.9899 67.9633 39.1456 68.3065C39.3013 68.6497 39.5046 68.9506 39.7554 69.2067C40.0062 69.4627 40.2992 69.666 40.6371 69.8165C40.975 69.9669 41.3419 70.0408 41.7432 70.0408C42.3794 70.0408 42.9179 69.9273 43.3561 69.7029C43.7943 69.4786 44.1876 69.1459 44.5361 68.7104L45.6422 69.5736L45.6369 69.5762ZM44.3803 65.9967C44.3539 65.247 44.1111 64.6477 43.6491 64.1963C43.1871 63.7475 42.5483 63.5205 41.7379 63.5205C40.9275 63.5205 40.2702 63.7449 39.7686 64.1963C39.2697 64.6451 38.9687 65.247 38.8684 65.9967H44.3777H44.3803Z" fill="white"/>
<path d="M53.0231 63.6336H50.4361V68.0183C50.4361 68.306 50.4413 68.57 50.4545 68.8155C50.4677 69.0584 50.5179 69.2722 50.605 69.4517C50.6921 69.6338 50.8241 69.7764 50.9983 69.882C51.1726 69.9876 51.4233 70.0404 51.748 70.0404C51.9592 70.0404 52.1783 70.0166 52.4027 69.9664C52.6271 69.9163 52.8409 69.8424 53.0389 69.7421L53.0943 71.0725C52.8436 71.186 52.5664 71.2652 52.2602 71.3154C51.9539 71.3655 51.6636 71.3893 51.389 71.3893C50.8637 71.3893 50.4466 71.3207 50.1325 71.1834C49.821 71.0461 49.5755 70.8534 49.4013 70.6026C49.227 70.3519 49.1109 70.043 49.0554 69.6761C49 69.3065 48.971 68.8973 48.971 68.4486V63.6309H47.0598V62.3929H48.971V59.9009H50.4334V62.3929H53.0204V63.6309L53.0231 63.6336Z" fill="white"/>
<path d="M69.5905 60.6353C69.1892 60.0968 68.6982 59.6956 68.1096 59.4263C67.5209 59.157 66.9111 59.0224 66.2723 59.0224C65.5358 59.0224 64.8573 59.1729 64.2396 59.4712C63.6219 59.7721 63.086 60.1734 62.6373 60.6802C62.1885 61.1871 61.8374 61.7731 61.5866 62.441C61.3358 63.1088 61.2118 63.8057 61.2118 64.5317C61.2118 65.3078 61.3358 66.0285 61.5866 66.6963C61.8374 67.3642 62.1832 67.945 62.6267 68.4386C63.0702 68.9322 63.6008 69.3229 64.2211 69.6107C64.8389 69.8984 65.5226 70.041 66.2723 70.041C67.0853 70.041 67.8086 69.8826 68.4475 69.5632C69.0863 69.2437 69.6407 68.7844 70.1158 68.1852L71.2958 69.1777C70.6966 69.9776 69.9759 70.5636 69.1312 70.9385C68.2864 71.3133 67.3361 71.5008 66.2723 71.5008C65.3219 71.5008 64.435 71.3265 63.6113 70.9754C62.7877 70.627 62.0723 70.1413 61.4652 69.5236C60.858 68.9058 60.3855 68.172 60.0397 67.322C59.6965 66.4719 59.5249 65.5401 59.5249 64.529C59.5249 63.518 59.6912 62.6416 60.0212 61.7916C60.3512 60.9416 60.8184 60.205 61.4177 59.5794C62.0169 58.9538 62.7297 58.4601 63.5533 58.0985C64.3769 57.7368 65.285 57.5547 66.2696 57.5547C67.1698 57.5547 68.0357 57.7184 68.8646 58.0431C69.6961 58.3677 70.393 58.8983 70.9553 59.6375L69.5879 60.6301L69.5905 60.6353Z" fill="white"/>
<path d="M73.3574 57H74.8199V71.1705H73.3574V57Z" fill="white"/>
<path d="M77.5363 58.9666C77.5363 58.6788 77.6392 58.4307 77.8451 58.2169C78.051 58.0057 78.3044 57.8975 78.6054 57.8975C78.9063 57.8975 79.1571 58.0031 79.3656 58.2169C79.5715 58.4307 79.6745 58.6788 79.6745 58.9666C79.6745 59.2781 79.5742 59.5341 79.3736 59.7348C79.1729 59.9354 78.9169 60.0357 78.6054 60.0357C78.2939 60.0357 78.0378 59.9354 77.8372 59.7348C77.6366 59.5341 77.5363 59.2781 77.5363 58.9666ZM77.8741 62.3957H79.3366V71.1677H77.8741V62.3983V62.3957Z" fill="white"/>
<path d="M82.2404 64.4782C82.2404 64.0796 82.2272 63.7047 82.2035 63.3536C82.1771 63.0025 82.1665 62.6858 82.1665 62.398H83.5524C83.5524 62.6356 83.5577 62.8732 83.5709 63.1108C83.5841 63.3483 83.5894 63.5912 83.5894 63.842H83.6263C83.7266 63.6308 83.8666 63.4249 84.0487 63.2243C84.2309 63.0236 84.4447 62.8468 84.6955 62.691C84.9462 62.5353 85.2261 62.4086 85.5402 62.3162C85.8517 62.2211 86.1896 62.1763 86.5512 62.1763C87.1267 62.1763 87.623 62.2634 88.0401 62.4376C88.4572 62.6118 88.8056 62.8573 89.0802 63.1688C89.3547 63.4803 89.558 63.8605 89.69 64.3013C89.822 64.7448 89.888 65.2279 89.888 65.7532V71.1701H88.4255V65.9037C88.4255 65.1672 88.2618 64.5864 87.9371 64.1614C87.6124 63.7364 87.1056 63.5252 86.4193 63.5252C85.9441 63.5252 85.5349 63.607 85.1917 63.7681C84.8486 63.9317 84.5661 64.1614 84.347 64.4623C84.1279 64.7633 83.9669 65.1196 83.8586 65.5315C83.753 65.9433 83.7003 66.4 83.7003 66.8989V71.1727H82.2378V64.4808L82.2404 64.4782Z" fill="white"/>
<path d="M92.4564 58.9666C92.4564 58.6788 92.5594 58.4307 92.7653 58.2169C92.9712 58.0057 93.2246 57.8975 93.5255 57.8975C93.8265 57.8975 94.0773 58.0031 94.2858 58.2169C94.4917 58.4307 94.5947 58.6788 94.5947 58.9666C94.5947 59.2781 94.4944 59.5341 94.2937 59.7348C94.0931 59.9354 93.837 60.0357 93.5255 60.0357C93.214 60.0357 92.958 59.9354 92.7574 59.7348C92.5567 59.5341 92.4564 59.2781 92.4564 58.9666ZM92.7943 62.3957H94.2568V71.1677H92.7943V62.3983V62.3957Z" fill="white"/>
<path d="M103.401 64.5896C103.09 64.2148 102.752 63.9429 102.39 63.7739C102.028 63.605 101.627 63.5205 101.192 63.5205C100.703 63.5205 100.273 63.605 99.898 63.7739C99.5232 63.9429 99.2143 64.1778 98.9715 64.4761C98.7286 64.7744 98.5438 65.1229 98.4197 65.5162C98.2957 65.9095 98.2323 66.3319 98.2323 66.7807C98.2323 67.2294 98.3036 67.6518 98.4488 68.0451C98.594 68.4385 98.792 68.7843 99.048 69.0852C99.3041 69.3862 99.6129 69.6185 99.9746 69.7874C100.336 69.9564 100.743 70.0408 101.192 70.0408C102.152 70.0408 102.897 69.6792 103.422 68.9532L104.51 69.9854C104.085 70.4738 103.586 70.8301 103.01 71.0545C102.435 71.2789 101.83 71.3924 101.192 71.3924C100.516 71.3924 99.898 71.2789 99.3357 71.0545C98.7735 70.8301 98.2957 70.5107 97.9023 70.0989C97.509 69.6871 97.2028 69.1987 96.9837 68.6365C96.7646 68.0742 96.6563 67.4565 96.6563 66.7807C96.6563 66.1049 96.7646 65.5057 96.9837 64.9434C97.2028 64.3811 97.5116 63.8927 97.9102 63.4809C98.3089 63.0691 98.7893 62.7471 99.3437 62.5148C99.9007 62.2825 100.516 62.1689 101.189 62.1689C101.862 62.1689 102.453 62.2825 103.034 62.5068C103.615 62.7312 104.124 63.0823 104.563 63.5575L103.401 64.5896Z" fill="white"/>
</svg>
